<svg width="131" height="58" viewBox="0 0 131 58" fill="none" xmlns="http://www.w3.org/2000/svg">
<g clip-path="url(#clip0_508_2826)">
<path d="M120 54.1896C119.225 55.7257 116.166 57.8477 114.578 57.8477C114.483 57.8554 114.387 57.845 114.297 57.8171C114.206 57.7893 114.124 57.7446 114.053 57.686C113.983 57.6274 113.927 57.5562 113.89 57.4769C113.852 57.3976 113.832 57.312 113.833 57.2256C113.833 56.5339 115.142 55.5605 115.844 55.1316L115.828 55.1108C114.402 55.4662 104.449 58 99.8381 58C98.3391 58 97.1318 57.5377 97.1318 56.2911C97.1394 55.9505 97.2125 55.6137 97.348 55.2959L97.3318 55.2596C95.9385 56.1095 94.5449 56.9595 93.1512 57.8098L92.7542 57.4749C93.6273 56.7743 95.7427 54.7629 95.3126 54.3737C94.7214 53.8386 78.0082 57.8365 74.81 57.8365C74.3497 57.8365 73.6846 57.6419 73.6846 57.1226C73.6846 56.495 75.0069 55.2215 75.6619 54.6919L75.6543 54.6396C68.1216 55.4703 60.6129 56.6175 53.1761 57.9754L52.8422 57.6047C53.795 57.2338 55.9572 56.454 55.9572 55.6284C55.9572 55.2184 55.4965 54.8411 55.7212 54.4402C53.7692 54.9575 41.8871 57.8143 37.8398 57.8143C36.9345 57.8143 36.0119 57.6074 36.0119 56.6951C36.0171 56.4725 36.0629 56.2523 36.1475 56.0433C35.6244 56.3004 32.6124 57.7566 31.9849 57.7566C31.7523 57.7566 31.3455 57.4711 31.3455 57.3346C31.3455 56.5496 33.5723 55.373 34.1645 55.0862L34.1219 55.0374C27.9957 56.3857 16.8993 57.9665 13.5497 57.9665C13.0826 57.9665 11 57.8604 11 56.9126C11 55.6008 15.9714 53.4515 17.6537 53.4515C17.8573 53.4515 18.4211 53.7437 18.4211 53.8543C18.4211 54.4607 16.6064 55.3478 16.0054 55.626L15.6715 55.2549C16.2472 54.9886 17.616 54.2763 17.9229 53.8151C14.5308 54.4266 11.4557 56.2833 11.4557 57.0693C11.4557 57.635 13.1762 57.5739 13.444 57.5739C17.1861 57.5739 28.6594 55.8941 37.6985 53.8472L38.0324 54.2183C36.2405 54.611 32.6299 55.9583 31.8231 57.351C32.899 57.1502 35.1383 56.0245 36.5931 55.2836L36.9587 55.6366C35.7729 57.4305 36.9485 57.4223 37.2552 57.451C40.016 57.7067 51.8552 55.0545 56.9467 53.7079L57.2805 54.079C56.9613 54.2036 56.063 54.4986 56.063 54.9469C56.063 55.246 56.402 55.5547 56.402 55.8613C56.402 56.4841 55.4973 56.9392 55.0502 57.17L55.0833 57.2031C62.1761 56.0245 69.2541 54.9623 76.4044 54.1504L76.7277 54.5075C73.0504 57.4814 74.0577 57.4384 74.6893 57.4517C77.5883 57.5125 92.2577 53.9923 94.8825 53.9923C95.5616 53.9923 95.788 54.3173 95.7653 54.7199C95.7397 55.1907 95.0885 56.0067 95.0885 56.0067L95.107 56.0392C96.0317 55.4755 96.9559 54.9116 97.8796 54.3477L98.2773 54.683C97.8588 55.2254 97.5996 55.8553 97.5242 56.5134C97.5242 57.1642 97.9886 57.6156 99.4087 57.6156C104.082 57.6156 112.928 55.3897 117.882 54.1306L118.179 54.46C113.613 56.734 114.137 57.4011 114.328 57.4691C115.099 57.7443 118.395 55.976 119.493 53.8871L120 54.1896ZM76.6349 53.1715L80.0297 52.3711L79.6954 52L76.301 52.8006L76.6349 53.1715Z" fill="#BD9640"/>
<path d="M107.559 45L106.133 43.1726C109.352 40.9942 113.008 37.7274 113.008 31.772C113.008 27.6925 110.949 23.6991 108.958 19.8367C107.073 16.1811 105.293 12.7285 105.293 9.39374C105.293 6.04804 107.535 2.88794 111.957 0L113.226 1.90425C111.34 2.99934 107.181 5.95448 107.181 10.7051C107.181 14.1852 108.961 17.7104 110.845 21.4424C112.819 25.3505 114.859 29.3916 114.859 33.5622C114.859 38.4972 110.907 42.4973 107.559 45ZM128.402 12.8932V11.9137H122.109V1.83687H129.556V0.871025H119.946V44.0225H131V42.1287H122.109V12.8932H128.402ZM77.6604 0.871007V44.0225H79.8244V0.871007H77.6604ZM8.45693 12.8932V11.9137H2.16385V2.76384H9.61021V0.871025H0V44.0225H11.0544V43.0557H2.16385V12.8932H8.45693ZM61.5329 0.871007V44.0225H72.1281V42.1287H63.6967V0.871007H61.5329ZM91.145 33.5322V44.0226H88.9242V0.809865C92.1263 1.35175 101.689 7.13575 101.689 17.3809C101.689 24.804 96.2918 30.5562 91.145 33.5322ZM99.8015 17.0002C99.8015 5.67852 91.0883 3.02805 91.0883 3.02805V30.8145C91.0883 30.8145 99.8015 25.9419 99.8015 17.0002ZM12.0901 21.8432C12.0901 34.8672 22.9915 44.8679 34.8889 44.8679H34.8909C47.7156 44.8679 56.1625 34.0476 56.1625 23.3007C56.177 19.5171 55.2461 15.7908 53.4558 12.4666L52.8567 12.8437C54.1303 15.4456 54.8045 18.3045 54.8287 21.2065C54.8287 33.7134 45.0989 43.0132 33.3978 43.0132H33.3967C22.0589 43.0132 13.662 34.0477 13.662 23.0596C13.662 11.7647 22.9012 1.75053 35.0278 1.75053C38.7587 1.74041 42.4191 2.77604 45.6012 4.74205L46.0702 4.14308C42.3506 1.50757 37.9176 0.0908865 33.373 0.0852691C21.7583 0.0852452 12.0901 9.51809 12.0901 21.8432Z" fill="#BD9640"/>
</g>
<defs>
<clipPath id="clip0_508_2826">
<rect width="131" height="58" fill="white"/>
</clipPath>
</defs>
</svg>
