<svg width="50" height="50" viewBox="0 0 50 50" fill="none" xmlns="http://www.w3.org/2000/svg">
<path fill-rule="evenodd" clip-rule="evenodd" d="M25 46C36.598 46 46 36.598 46 25C46 13.402 36.598 4 25 4C13.402 4 4 13.402 4 25C4 36.598 13.402 46 25 46ZM36.6734 19.7506C37.2536 19.1025 37.1986 18.1068 36.5506 17.5266C35.9025 16.9464 34.9068 17.0014 34.3266 17.6494L27.2513 25.5521C25.8176 27.1534 24.8522 28.2262 24.0267 28.92C23.2403 29.5809 22.7785 29.725 22.375 29.725C21.9715 29.725 21.5097 29.5809 20.7233 28.92C19.8978 28.2262 18.9324 27.1534 17.4987 25.5521L15.6734 23.5134C15.0932 22.8653 14.0975 22.8103 13.4494 23.3905C12.8014 23.9707 12.7464 24.9665 13.3266 25.6145L15.2298 27.7403C16.5651 29.2319 17.6789 30.476 18.6965 31.3313C19.7731 32.2362 20.9342 32.875 22.375 32.875C23.8158 32.875 24.9769 32.2362 26.0535 31.3314C27.0711 30.476 28.1849 29.2319 29.5202 27.7404L36.6734 19.7506Z" fill="#527BEF"/>
</svg>
