<svg width="40" height="40" viewBox="0 0 40 40" fill="none" xmlns="http://www.w3.org/2000/svg">
<path d="M29.8679 13.7743C25.3757 11.5139 19.76 12.2609 16.0104 16.0152C12.3536 19.6766 11.5536 25.1152 13.6103 29.5543C13.3248 29.4158 13.042 29.2606 12.7629 29.088C12.4858 28.9165 12.3473 28.8308 12.2425 28.7892C12.0422 28.7098 11.8903 28.6868 11.6755 28.7035C11.5632 28.7121 11.4359 28.7452 11.1814 28.8112C9.57959 29.2269 8.77859 29.4348 8.20159 29.3172C7.20012 29.1132 6.41745 28.3295 6.21364 27.3268C6.09622 26.749 6.30381 25.9471 6.71899 24.3433C6.78498 24.0883 6.81798 23.9608 6.82663 23.848C6.84311 23.6329 6.81969 23.4791 6.73998 23.2787C6.69816 23.1735 6.61267 23.0358 6.44168 22.7603C3.35404 17.7856 5.74359 11.7548 8.7598 8.73477C13.7332 3.75508 21.7968 3.75508 26.7702 8.73477C28.233 10.1994 29.2656 11.9318 29.8679 13.7743Z" fill="#527BEF"/>
<path fill-rule="evenodd" clip-rule="evenodd" d="M28.607 33.8372C24.5064 36.3745 19.4541 34.3121 17.0716 31.9266C12.9758 27.8256 12.9758 21.1767 17.0716 17.0758C21.1674 12.9749 27.8079 12.9749 31.9037 17.0758C34.3876 19.5629 36.3555 24.5294 33.8127 28.6262C33.6719 28.8531 33.6015 28.9665 33.5671 29.0531C33.5014 29.2182 33.4821 29.3449 33.4957 29.522C33.5028 29.6149 33.53 29.7199 33.5844 29.9298C33.9263 31.2506 34.0972 31.9111 34.0005 32.3869C33.8327 33.2126 33.1881 33.858 32.3634 34.0261C31.8882 34.1229 31.2286 33.9517 29.9095 33.6094C29.6999 33.555 29.595 33.5278 29.5025 33.5206C29.3256 33.5069 29.2005 33.5258 29.0356 33.5912C28.9493 33.6254 28.8352 33.696 28.607 33.8372ZM21.4998 24.5002C21.4998 25.3287 20.8283 26.0002 19.9998 26.0002C19.1714 26.0002 18.4998 25.3287 18.4998 24.5002C18.4998 23.6718 19.1714 23.0002 19.9998 23.0002C20.8283 23.0002 21.4998 23.6718 21.4998 24.5002ZM25.9999 24.5002C25.9999 25.3287 25.3283 26.0002 24.4999 26.0002C23.6714 26.0002 22.9999 25.3287 22.9999 24.5002C22.9999 23.6718 23.6714 23.0002 24.4999 23.0002C25.3283 23.0002 25.9999 23.6718 25.9999 24.5002ZM28.9999 26.0002C29.8284 26.0002 30.4999 25.3287 30.4999 24.5002C30.4999 23.6718 29.8284 23.0002 28.9999 23.0002C28.1715 23.0002 27.4999 23.6718 27.4999 24.5002C27.4999 25.3287 28.1715 26.0002 28.9999 26.0002Z" fill="#527BEF"/>
</svg>
