<svg width="50" height="50" viewBox="0 0 50 50" fill="none" xmlns="http://www.w3.org/2000/svg">
<path d="M18.7498 4.16663C13.2845 4.16663 8.854 8.59714 8.854 14.0625C8.854 19.5278 13.2845 23.9583 18.7498 23.9583C24.2152 23.9583 28.6457 19.5278 28.6457 14.0625C28.6457 8.59714 24.2152 4.16663 18.7498 4.16663Z" fill="#527BEF"/>
<path d="M41.1457 18.2291C41.1457 17.3662 40.4461 16.6666 39.5832 16.6666C38.7202 16.6666 38.0207 17.3662 38.0207 18.2291V22.9166H33.3332C32.4702 22.9166 31.7707 23.6162 31.7707 24.4791C31.7707 25.3421 32.4702 26.0416 33.3332 26.0416H38.0207V30.7291C38.0207 31.5921 38.7202 32.2916 39.5832 32.2916C40.4461 32.2916 41.1457 31.5921 41.1457 30.7291V26.0416H45.8332C46.6961 26.0416 47.3957 25.3421 47.3957 24.4791C47.3957 23.6162 46.6961 22.9166 45.8332 22.9166H41.1457V18.2291Z" fill="#527BEF"/>
<path d="M12.4998 27.0833C7.03452 27.0833 2.604 31.5138 2.604 36.9791C2.604 42.4444 7.03452 46.875 12.4998 46.875H24.9998C30.4652 46.875 34.8957 42.4444 34.8957 36.9791C34.8957 31.5138 30.4652 27.0833 24.9998 27.0833H12.4998Z" fill="#527BEF"/>
</svg>
