<svg width="50" height="50" viewBox="0 0 50 50" fill="none" xmlns="http://www.w3.org/2000/svg">
<path d="M20.3123 25C20.3123 22.4112 22.411 20.3125 24.9998 20.3125C27.5887 20.3125 29.6873 22.4112 29.6873 25C29.6873 27.5888 27.5887 29.6875 24.9998 29.6875C22.411 29.6875 20.3123 27.5888 20.3123 25Z" fill="white"/>
<path fill-rule="evenodd" clip-rule="evenodd" d="M17.8857 6.73393C19.9283 -0.42311 30.0712 -0.423112 32.1137 6.73393C32.7466 8.95144 35.0248 10.2668 37.2616 9.70608C44.4811 7.89644 49.5525 16.6805 44.3756 22.0279C42.7716 23.6847 42.7716 26.3153 44.3756 27.9722C49.5525 33.3196 44.4811 42.1036 37.2616 40.294C35.0248 39.7333 32.7466 41.0486 32.1137 43.2661C30.0712 50.4231 19.9283 50.4231 17.8857 43.2661C17.2529 41.0486 14.9747 39.7333 12.7378 40.294C5.51838 42.1036 0.446918 33.3196 5.62384 27.9722C7.22783 26.3153 7.22783 23.6847 5.62384 22.0279C0.44692 16.6805 5.51838 7.89644 12.7378 9.70608C14.9747 10.2668 17.2529 8.95144 17.8857 6.73393ZM24.9998 17.1875C20.6851 17.1875 17.1873 20.6853 17.1873 25C17.1873 29.3147 20.6851 32.8125 24.9998 32.8125C29.3146 32.8125 32.8123 29.3147 32.8123 25C32.8123 20.6853 29.3146 17.1875 24.9998 17.1875Z" fill="white"/>
</svg>
