<svg width="40" height="40" viewBox="0 0 40 40" fill="none" xmlns="http://www.w3.org/2000/svg">
<path d="M15.5748 13.8577L19.2924 7.81667C19.7321 7.10205 20.5111 6.66675 21.3502 6.66675C22.8311 6.66675 23.9636 7.98676 23.7384 9.45045L23.3333 12.0834C22.8952 14.9315 25.0988 17.5001 27.9804 17.5001H29.13C33.3583 17.5001 36.1084 21.9499 34.2175 25.7318L32.3033 29.5602C30.8917 32.3834 28.0061 34.1667 24.8497 34.1667H20C17.7535 34.1667 15.7666 33.0556 14.5587 31.3529C14.575 31.1819 14.5833 31.0086 14.5833 30.8334V17.5001C14.5833 16.9484 14.5009 16.416 14.3476 15.9145C14.643 15.372 15.0362 14.7329 15.5748 13.8577Z" fill="#527BEF"/>
<path d="M12.0833 30.8334C12.0833 32.4442 10.7775 33.7501 9.16667 33.7501C7.55584 33.7501 6.25 32.4442 6.25 30.8334V17.5001C6.25 15.8893 7.55584 14.5834 9.16667 14.5834C10.7775 14.5834 12.0833 15.8893 12.0833 17.5001V30.8334Z" fill="#527BEF"/>
</svg>
