<svg width="50" height="50" viewBox="0 0 50 50" fill="none" xmlns="http://www.w3.org/2000/svg">
<path fill-rule="evenodd" clip-rule="evenodd" d="M15.625 8.6097C13.4554 8.86695 11.8639 9.36367 10.5439 10.3227C9.65958 10.9652 8.8819 11.7429 8.23941 12.6272C6.25 15.3654 6.25 19.2714 6.25 27.0833C6.25 34.8953 6.25 38.8012 8.23941 41.5394C8.8819 42.4237 9.65958 43.2014 10.5439 43.8439C13.2821 45.8333 17.1881 45.8333 25 45.8333C26.7478 45.8333 28.3001 45.8333 29.6875 45.811L29.6875 45.665C29.6874 43.8899 29.6873 42.8087 29.835 41.876C30.6468 36.7502 34.6669 32.7302 39.7927 31.9183C40.7254 31.7706 41.8066 31.7707 43.5816 31.7708L43.7277 31.7708C43.75 30.3837 43.75 28.8317 43.75 27.0843C43.75 19.2723 43.75 15.3654 41.7606 12.6272C41.1181 11.7429 40.3404 10.9652 39.4561 10.3227C38.1361 9.36367 36.5446 8.86695 34.375 8.6097V10.4167C34.375 12.1425 32.9759 13.5417 31.25 13.5417C29.5241 13.5417 28.125 12.1425 28.125 10.4167V8.33917C27.1581 8.33332 26.1191 8.33332 25 8.33332C23.8809 8.33332 22.8419 8.33332 21.875 8.33917V10.4167C21.875 12.1425 20.4759 13.5417 18.75 13.5417C17.0241 13.5417 15.625 12.1425 15.625 10.4167V8.6097ZM14.5833 20.8333C15.7339 20.8333 16.6667 19.9006 16.6667 18.75C16.6667 17.5994 15.7339 16.6667 14.5833 16.6667C13.4327 16.6667 12.5 17.5994 12.5 18.75C12.5 19.9006 13.4327 20.8333 14.5833 20.8333ZM16.6667 27.0833C16.6667 28.2339 15.7339 29.1667 14.5833 29.1667C13.4327 29.1667 12.5 28.2339 12.5 27.0833C12.5 25.9327 13.4327 25 14.5833 25C15.7339 25 16.6667 25.9327 16.6667 27.0833ZM25 20.8333C26.1506 20.8333 27.0833 19.9006 27.0833 18.75C27.0833 17.5994 26.1506 16.6667 25 16.6667C23.8494 16.6667 22.9167 17.5994 22.9167 18.75C22.9167 19.9006 23.8494 20.8333 25 20.8333ZM27.0833 27.0833C27.0833 28.2339 26.1506 29.1667 25 29.1667C23.8494 29.1667 22.9167 28.2339 22.9167 27.0833C22.9167 25.9327 23.8494 25 25 25C26.1506 25 27.0833 25.9327 27.0833 27.0833ZM25 37.5C26.1506 37.5 27.0833 36.5673 27.0833 35.4167C27.0833 34.2661 26.1506 33.3333 25 33.3333C23.8494 33.3333 22.9167 34.2661 22.9167 35.4167C22.9167 36.5673 23.8494 37.5 25 37.5ZM37.5 18.75C37.5 19.9006 36.5673 20.8333 35.4167 20.8333C34.2661 20.8333 33.3333 19.9006 33.3333 18.75C33.3333 17.5994 34.2661 16.6667 35.4167 16.6667C36.5673 16.6667 37.5 17.5994 37.5 18.75ZM35.4167 29.1667C36.5673 29.1667 37.5 28.2339 37.5 27.0833C37.5 25.9327 36.5673 25 35.4167 25C34.2661 25 33.3333 25.9327 33.3333 27.0833C33.3333 28.2339 34.2661 29.1667 35.4167 29.1667ZM16.6667 35.4167C16.6667 36.5673 15.7339 37.5 14.5833 37.5C13.4327 37.5 12.5 36.5673 12.5 35.4167C12.5 34.2661 13.4327 33.3333 14.5833 33.3333C15.7339 33.3333 16.6667 34.2661 16.6667 35.4167Z" fill="white"/>
<path d="M43.6139 34.8958C41.7173 34.8961 40.9241 34.9031 40.2816 35.0048C36.4929 35.6049 33.5216 38.5763 32.9215 42.3649C32.8198 43.0074 32.8128 43.8007 32.8125 45.6972C35.8117 45.5005 37.8378 45.0196 39.4561 43.8439C40.3404 43.2014 41.1181 42.4237 41.7606 41.5394C42.9363 39.9212 43.4172 37.8951 43.6139 34.8958Z" fill="white"/>
<path d="M20.3125 4.16666C20.3125 3.30371 19.6129 2.60416 18.75 2.60416C17.8871 2.60416 17.1875 3.30371 17.1875 4.16666V10.4167C17.1875 11.2796 17.8871 11.9792 18.75 11.9792C19.6129 11.9792 20.3125 11.2796 20.3125 10.4167V4.16666Z" fill="white"/>
<path d="M32.8125 4.16666C32.8125 3.30371 32.1129 2.60416 31.25 2.60416C30.3871 2.60416 29.6875 3.30371 29.6875 4.16666V10.4167C29.6875 11.2796 30.3871 11.9792 31.25 11.9792C32.1129 11.9792 32.8125 11.2796 32.8125 10.4167V4.16666Z" fill="white"/>
</svg>
