<svg width="50" height="50" viewBox="0 0 50 50" fill="none" xmlns="http://www.w3.org/2000/svg">
<path d="M24.4434 16.5884C24.629 15.9983 25.3705 15.9983 25.5561 16.5884C26.0405 18.1284 27.451 19.2182 29.0935 19.2182C29.2535 19.2182 29.3561 19.2657 29.4325 19.3268C29.5197 19.3964 29.6024 19.5102 29.6498 19.6607C29.7455 19.9648 29.6631 20.2458 29.4206 20.4278C28.1234 21.4014 27.6041 23.0994 28.0862 24.6319C28.1922 24.969 28.0722 25.2374 27.8569 25.399C27.7467 25.4817 27.6318 25.5177 27.5359 25.5206C27.4533 25.5232 27.3426 25.504 27.2027 25.399C25.8927 24.4158 24.1069 24.4158 22.7968 25.399C22.657 25.504 22.5463 25.5232 22.4636 25.5206C22.3678 25.5177 22.2528 25.4817 22.1426 25.399C21.9273 25.2374 21.8074 24.969 21.9134 24.6319C22.3954 23.0994 21.8762 21.4014 20.579 20.4278C20.3365 20.2458 20.2541 19.9648 20.3497 19.6607C20.3971 19.5102 20.4799 19.3964 20.5671 19.3268C20.6435 19.2657 20.746 19.2182 20.9061 19.2182C22.5485 19.2182 23.959 18.1284 24.4434 16.5884Z" fill="white"/>
<path fill-rule="evenodd" clip-rule="evenodd" d="M17.1316 3.19049C18.9389 2.60326 21.1081 2.6036 24.6628 2.60416H25.3372C28.8919 2.6036 31.0611 2.60326 32.8684 3.19049C36.5153 4.37545 39.3746 7.23468 40.5595 10.8816L40.5775 10.9375H41.1862C48.9061 10.9375 52.2223 20.7335 46.09 25.4229L46.0678 25.4399L40.9401 29.0782C40.7488 29.2139 40.5509 29.3399 40.3473 29.4558C40.3252 29.5139 40.3024 29.5719 40.2791 29.6299C39.7468 30.952 38.7079 32.5384 37.7087 33.5546C36.0803 35.2109 34.3951 35.9453 31.7042 37.1181L31.5254 37.196C30.3663 37.7013 29.1943 38.1597 28.1061 38.4942C27.5907 38.6526 27.0704 38.7907 26.5625 38.8912V44.2709H33.3333C34.1963 44.2709 34.8958 44.9704 34.8958 45.8334C34.8958 46.6963 34.1963 47.3959 33.3333 47.3959H16.6667C15.8037 47.3959 15.1042 46.6963 15.1042 45.8334C15.1042 44.9704 15.8037 44.2709 16.6667 44.2709H23.4375V38.8912C22.9296 38.7907 22.4093 38.6526 21.8939 38.4942C20.8057 38.1597 19.6337 37.7013 18.4746 37.196L18.2958 37.1181C15.6049 35.9453 13.9197 35.2109 12.2913 33.5546C11.2921 32.5384 10.2531 30.952 9.72089 29.6299C9.6969 29.5703 9.67354 29.5106 9.6508 29.4509C9.45142 29.3403 9.25814 29.2187 9.07188 29.0865L3.93249 25.4399L3.9103 25.4229C-2.22203 20.7335 1.09422 10.9375 8.8141 10.9375H9.42251L9.44047 10.8816C10.6254 7.23468 13.4846 4.37545 17.1316 3.19049ZM8.92305 14.0625H8.8141C4.09138 14.0625 2.05763 20.0442 5.78779 22.9246L8.89579 25.1298C8.85386 24.1252 8.85399 23.0022 8.85414 21.7L8.85416 18.5751C8.85409 16.7434 8.85404 15.2815 8.92305 14.0625ZM41.1042 25.13L44.2125 22.9246C47.9426 20.0442 45.9089 14.0625 41.1862 14.0625H41.0769C41.1459 15.2814 41.1459 16.7435 41.1458 18.5749L41.1458 21.7019C41.146 23.0034 41.1461 24.1258 41.1042 25.13ZM28.5371 15.6507C27.4342 12.1442 22.5654 12.1442 21.4624 15.6507C21.3706 15.9426 21.1284 16.0932 20.9061 16.0932C17.2072 16.0932 15.9064 20.8282 18.7032 22.9272C18.9146 23.0859 19.0266 23.3948 18.9324 23.6943C18.3942 25.4054 19.0868 27.0127 20.2668 27.8984C21.4542 28.7895 23.2102 28.9959 24.6727 27.8984C24.8713 27.7493 25.1283 27.7493 25.3269 27.8984C26.7893 28.9959 28.5454 28.7895 29.7327 27.8984C30.9128 27.0127 31.6054 25.4054 31.0672 23.6943C30.973 23.3948 31.085 23.0859 31.2964 22.9272C34.0932 20.8282 32.7924 16.0932 29.0935 16.0932C28.8711 16.0932 28.6289 15.9426 28.5371 15.6507Z" fill="white"/>
</svg>
