<svg width="40" height="40" viewBox="0 0 40 40" fill="none" xmlns="http://www.w3.org/2000/svg">
<path d="M30.8333 12.9167C30.8333 9.46497 28.0351 6.66675 24.5833 6.66675C21.1316 6.66675 18.3333 9.46497 18.3333 12.9167C18.3333 16.3685 21.1316 19.1667 24.5833 19.1667C28.0351 19.1667 30.8333 16.3685 30.8333 12.9167Z" fill="#527BEF"/>
<path d="M19.0011 7.30321C17.5592 8.73706 16.6667 10.7227 16.6667 12.9167C16.6667 15.1108 17.5592 17.0964 19.0011 18.5303C18.1709 18.9379 17.2372 19.1667 16.25 19.1667C12.7982 19.1667 10 16.3685 10 12.9167C10 9.46497 12.7982 6.66675 16.25 6.66675C17.2372 6.66675 18.1709 6.89563 19.0011 7.30321Z" fill="#527BEF"/>
<path d="M35.8333 27.9167C35.8333 24.465 33.0351 21.6667 29.5833 21.6667H19.5833C16.1316 21.6667 13.3333 24.465 13.3333 27.9167C13.3333 31.3685 16.1316 34.1667 19.5833 34.1667H29.5833C33.0351 34.1667 35.8333 31.3685 35.8333 27.9167Z" fill="#527BEF"/>
<path d="M11.6667 27.9167C11.6667 29.6249 12.2076 31.2066 13.1276 32.5001H11.25C7.79822 32.5001 5 29.7019 5 26.2501C5 22.7983 7.79822 20.0001 11.25 20.0001H19.5833C15.2111 20.0001 11.6667 23.5445 11.6667 27.9167Z" fill="#527BEF"/>
</svg>
