<svg width="50" height="50" viewBox="0 0 50 50" fill="none" xmlns="http://www.w3.org/2000/svg">
<path d="M18.0223 21.6003C16.22 19.8079 15.1043 17.3259 15.1043 14.5833C15.1043 11.8407 16.22 9.35874 18.0223 7.56643C16.9847 7.05694 15.8175 6.77084 14.5835 6.77084C10.2688 6.77084 6.771 10.2686 6.771 14.5833C6.771 18.8981 10.2688 22.3958 14.5835 22.3958C15.8175 22.3958 16.9847 22.1097 18.0223 21.6003Z" fill="white"/>
<path d="M17.1877 14.5833C17.1877 10.2686 20.6854 6.77084 25.0002 6.77084C29.3149 6.77084 32.8127 10.2686 32.8127 14.5833C32.8127 18.8981 29.3149 22.3958 25.0002 22.3958C20.6854 22.3958 17.1877 18.8981 17.1877 14.5833Z" fill="white"/>
<path d="M31.978 7.56643C33.7803 9.35874 34.896 11.8407 34.896 14.5833C34.896 17.3259 33.7803 19.8079 31.978 21.6003C33.0157 22.1097 34.1828 22.3958 35.4168 22.3958C39.7316 22.3958 43.2293 18.8981 43.2293 14.5833C43.2293 10.2686 39.7316 6.77084 35.4168 6.77084C34.1828 6.77084 33.0157 7.05694 31.978 7.56643Z" fill="white"/>
<path d="M10.9377 33.3333C10.9377 29.0186 14.4354 25.5208 18.7502 25.5208H31.2502C35.5649 25.5208 39.0627 29.0186 39.0627 33.3333C39.0627 37.6481 35.5649 41.1458 31.2502 41.1458H18.7502C14.4354 41.1458 10.9377 37.6481 10.9377 33.3333Z" fill="white"/>
<path d="M0.520996 31.25C0.520996 26.9353 4.01877 23.4375 8.3335 23.4375H18.7502C13.2848 23.4375 8.85433 27.868 8.85433 33.3333C8.85433 35.4685 9.53054 37.4457 10.6805 39.0625H8.3335C4.01877 39.0625 0.520996 35.5647 0.520996 31.25Z" fill="white"/>
<path d="M41.146 33.3333C41.146 35.4685 40.4698 37.4457 39.3198 39.0625H41.6668C45.9816 39.0625 49.4793 35.5647 49.4793 31.25C49.4793 26.9353 45.9816 23.4375 41.6668 23.4375H31.2502C36.7155 23.4375 41.146 27.868 41.146 33.3333Z" fill="white"/>
</svg>
