<svg width="36" height="36" viewBox="0 0 36 36" fill="none" xmlns="http://www.w3.org/2000/svg">
<path d="M28.8108 10.2162C28.8108 6.63384 25.9067 3.72974 22.3243 3.72974C18.7419 3.72974 15.8378 6.63384 15.8378 10.2162C15.8378 13.7986 18.7419 16.7027 22.3243 16.7027C25.9067 16.7027 28.8108 13.7986 28.8108 10.2162Z" fill="#527BEF"/>
<path d="M16.5308 4.39028C15.0344 5.87839 14.1081 7.93913 14.1081 10.2162C14.1081 12.4933 15.0344 14.5541 16.5308 16.0422C15.6693 16.4652 14.7002 16.7027 13.6757 16.7027C10.0933 16.7027 7.18919 13.7986 7.18919 10.2162C7.18919 6.63384 10.0933 3.72974 13.6757 3.72974C14.7002 3.72974 15.6693 3.96728 16.5308 4.39028Z" fill="#527BEF"/>
<path d="M34 25.7838C34 22.2014 31.0959 19.2973 27.5135 19.2973H17.1351C13.5527 19.2973 10.6486 22.2014 10.6486 25.7838C10.6486 29.3662 13.5527 32.2703 17.1351 32.2703H27.5135C31.0959 32.2703 34 29.3662 34 25.7838Z" fill="#527BEF"/>
<path d="M8.91892 25.7838C8.91892 27.5565 9.48035 29.1982 10.4351 30.5405H8.48649C4.9041 30.5405 2 27.6364 2 24.0541C2 20.4717 4.9041 17.5676 8.48649 17.5676H17.1351C12.5974 17.5676 8.91892 21.2461 8.91892 25.7838Z" fill="#527BEF"/>
</svg>
