<svg width="50" height="50" viewBox="0 0 50 50" fill="none" xmlns="http://www.w3.org/2000/svg">
<path d="M10.9375 11.9792C10.9375 6.51385 15.368 2.08333 20.8333 2.08333C26.2987 2.08333 30.7292 6.51385 30.7292 11.9792C30.7292 17.4445 26.2987 21.875 20.8333 21.875C15.368 21.875 10.9375 17.4445 10.9375 11.9792Z" fill="white"/>
<path d="M4.6875 34.8958C4.6875 29.4305 9.11802 25 14.5833 25H27.0833C31.3275 25 34.9476 27.6718 36.3535 31.4252L35.7099 32.144C34.2631 33.76 33.4505 34.6532 32.8125 35.1974C32.1745 34.6532 31.3619 33.76 29.9151 32.144L28.1043 30.1215C26.5693 28.407 23.9352 28.2615 22.2207 29.7965C20.5063 31.3314 20.3607 33.9656 21.8957 35.68L23.8681 37.8831C25.1177 39.2795 26.333 40.6374 27.4877 41.608C28.5701 42.5178 29.9418 43.3889 31.6789 43.6621C30.3057 44.3835 28.7422 44.7917 27.0833 44.7917H14.5833C9.11802 44.7917 4.6875 40.3611 4.6875 34.8958Z" fill="white"/>
<path d="M46.9975 28.1256C47.5731 27.4826 47.5185 26.4948 46.8756 25.9192C46.2326 25.3436 45.2448 25.3982 44.6692 26.0411L37.6501 33.8811C36.2278 35.4697 35.27 36.5339 34.4511 37.2222C33.671 37.8779 33.2128 38.0208 32.8125 38.0208C32.4122 38.0208 31.954 37.8779 31.1739 37.2222C30.355 36.5339 29.3972 35.4697 27.9749 33.881L26.1641 31.8585C25.5885 31.2156 24.6007 31.161 23.9578 31.7366C23.3148 32.3122 23.2603 33.3001 23.8359 33.943L25.724 36.0519C27.0487 37.5316 28.1536 38.7659 29.1632 39.6144C30.2312 40.5121 31.3832 41.1458 32.8125 41.1458C34.2418 41.1458 35.3938 40.5121 36.4618 39.6144C37.4714 38.7659 38.5763 37.5316 39.901 36.0519L46.9975 28.1256Z" fill="white"/>
</svg>
