<svg width="40" height="40" viewBox="0 0 40 40" fill="none" xmlns="http://www.w3.org/2000/svg">
<path d="M30.642 9.83152C29.7528 9.55124 28.7536 9.41515 27.5992 9.34392C26.2796 9.2625 24.6761 9.2625 22.7087 9.2625H18.2681C15.9432 9.26249 14.1206 9.26248 12.6645 9.40093C11.1803 9.54204 9.96509 9.83463 8.8938 10.4911C7.77195 11.1786 6.82872 12.1218 6.14125 13.2437C6.11689 13.2834 6.09304 13.3234 6.06967 13.3635C6.18175 11.2709 6.47449 9.88502 7.23909 8.78787C7.63922 8.21371 8.12353 7.70879 8.67426 7.29165C10.3795 6 12.812 6 17.6771 6H25.4617C27.9082 6 29.1314 6 29.8915 6.79235C30.4752 7.4009 30.6106 8.2943 30.642 9.83152Z" fill="#527BEF"/>
<path d="M7.06836 13.8119C6 15.5553 6 17.9285 6 22.675C6 27.4215 6 29.7947 7.06836 31.5381C7.66616 32.5136 8.48636 33.3338 9.46189 33.9316C11.2053 35 13.5785 35 18.325 35H22.675C27.4215 35 29.7947 35 31.5381 33.9316C32.5136 33.3338 33.3338 32.5136 33.9316 31.5381C34.6333 30.3931 34.8741 28.9765 34.9568 26.7943H25.7729C22.9882 26.7943 20.7308 24.5369 20.7308 21.7523C20.7308 18.9677 22.9882 16.7103 25.7729 16.7103H34.8227C34.6773 15.5102 34.4128 14.5971 33.9316 13.8119C33.3338 12.8364 32.5136 12.0162 31.5381 11.4184C31.2604 11.2482 30.9667 11.1051 30.65 10.9848C28.9784 10.35 26.6654 10.35 22.675 10.35H18.325C13.5785 10.35 11.2053 10.35 9.46189 11.4184C8.48636 12.0162 7.66616 12.8364 7.06836 13.8119Z" fill="#527BEF"/>
<path fill-rule="evenodd" clip-rule="evenodd" d="M34.9679 18.8853H25.7729C24.1894 18.8853 22.9058 20.1689 22.9058 21.7523C22.9058 23.3357 24.1894 24.6193 25.7729 24.6193H34.9966C35 24.0188 35 23.3725 35 22.675C35 21.2 35 19.9542 34.9679 18.8853ZM25.7729 20.6648C25.1722 20.6648 24.6854 21.1517 24.6854 21.7523C24.6854 22.3529 25.1722 22.8398 25.7729 22.8398H29.7274C30.328 22.8398 30.8149 22.3529 30.8149 21.7523C30.8149 21.1517 30.328 20.6648 29.7274 20.6648H25.7729Z" fill="#527BEF"/>
</svg>
