<svg width="270" height="39" viewBox="0 0 270 39" fill="none" xmlns="http://www.w3.org/2000/svg">
<g filter="url(#filter0_b_319_309)">
<path d="M19.1191 1.05377C17.8855 2.70784 12.7988 3.6825 10.4095 3.96306C11.1787 5.05346 12.9047 5.82815 15.5935 6.19684C17.7446 6.49179 19.6536 5.65105 20.3392 5.1938C22.1229 3.70794 21.1988 2.13601 19.1191 1.05377Z" fill="#527BEF"/>
<path d="M25.7053 9.81064C29.5995 7.96575 27.1775 4.61247 25.6198 3.1869C25.3329 4.6778 24.5687 4.91054 24.3699 5.08526C24.2108 5.22504 23.0071 5.87471 22.4251 6.18208C20.7881 6.87477 18.9689 7.49211 17.828 7.76208C17.0674 7.94206 16.3061 8.13215 14.6911 8.49598C12.316 9.03106 8.82758 9.42495 5.55471 9.39471C6.7834 10.6095 8.47157 11.9494 13.2035 12.5492C16.989 13.029 18.0478 12.4015 18.104 12.0277C19.3813 5.68304 24.8234 8.90265 25.7053 9.81064Z" fill="#527BEF"/>
<path d="M30.5652 18.0525C32.3612 16.934 33.2985 15.9345 33.7831 15.1964C33.9299 17.1424 34.6961 21.066 31.5864 23.1908C29.4221 24.6696 28.3446 23.1528 28.0421 22.0557C27.634 20.1726 28.7693 19.171 30.5652 18.0525Z" fill="#527BEF"/>
<path d="M10.9885 23.2492C6.17849 23.707 4.28109 23.7275 0.88961 23.5604C4.62076 26.8631 9.66859 27.402 14.3546 27.572C18.1034 27.708 20.6337 27.0085 21.4303 26.6417C25.2133 24.683 23.1304 21.3151 20.8929 21.5773C20.0048 21.6813 14.8901 22.8778 10.9885 23.2492Z" fill="#527BEF"/>
<path d="M30.2566 26.0698C30.2566 26.0698 33.2046 23.8489 33.998 23.0435C33.5548 26.1751 32.4719 28.1269 31.5293 28.8794C29.9795 30.21 29.0941 30.8458 28.3786 30.709C27.3627 28.1279 30.2566 26.0698 30.2566 26.0698Z" fill="#527BEF"/>
<path d="M28.2646 32.4117C29.335 31.3939 30.215 30.6727 31.4288 30.3821C29.7557 33.8303 27.0547 35.4275 25.9134 35.7951C25.8757 34.9155 27.106 33.5135 28.2646 32.4117Z" fill="#527BEF"/>
<path d="M14.6636 35.7569C12.818 35.9839 9.91835 36.1215 9.91835 36.1215C10.4017 36.5978 12.2397 37.6217 15.7244 37.9068C19.2092 38.192 20.7384 37.5386 21.1777 37.2647C23.7654 35.6513 22.9219 34.2994 21.3638 34.4836C21.3638 34.4836 17.3047 35.4319 14.6636 35.7569Z" fill="#527BEF"/>
<path fill-rule="evenodd" clip-rule="evenodd" d="M20.39 29.0924C17.6223 29.9892 11.6919 30.5308 11.6919 30.5308C11.6919 30.5308 11.2111 30.6914 3.52648 30.6005C7.46834 33.1332 12.0775 33.5244 14.4131 33.7227C14.5491 33.7342 14.6774 33.7451 14.7975 33.7558C16.5421 33.9102 19.5045 33.7569 20.9927 33.1816C25.4658 31.4525 23.2463 28.167 20.39 29.0924Z" fill="#527BEF"/>
<path d="M27.2896 11.7929C28.5072 11.3081 30.8584 9.91761 30.522 8.23398C30.8014 8.25268 33.2828 11.7221 31.834 13.7959C31.3469 14.5498 29.8707 16.2883 27.8627 17.211C25.3528 18.3644 22.5947 19.0293 21.93 19.1735C21.2654 19.3178 17.0238 19.7802 14.6756 19.9151C11.4651 20.0995 8.79428 19.7103 6.86327 19.2035C4.93225 18.6968 3.38113 18.1674 1.55696 16.0634C6.66305 16.177 13.2441 15.3512 16.4123 14.9347L18.7807 14.6789C19.2956 15.374 20.6016 16.9328 22.5341 17.1376C24.9498 17.3936 27.3415 16.6098 27.2896 11.7929Z" fill="#527BEF"/>
</g>
<path d="M47.2681 25.5016C46.9414 25.5016 46.689 25.4126 46.5109 25.2344C46.3327 25.0414 46.2437 24.7742 46.2437 24.4327V10.5588C46.2437 10.2025 46.3327 9.93524 46.5109 9.75709C46.689 9.57893 46.9414 9.48985 47.2681 9.48985C47.6095 9.48985 47.8693 9.57893 48.0475 9.75709C48.2256 9.93524 48.3147 10.2025 48.3147 10.5588V24.4327C48.3147 24.7742 48.2256 25.0414 48.0475 25.2344C47.8842 25.4126 47.6244 25.5016 47.2681 25.5016Z" fill="#070707"/>
<path d="M59.3096 25.5462C57.632 25.5462 56.2067 25.227 55.0339 24.5886C53.8758 23.9353 52.9925 23.0075 52.3838 21.8049C51.7899 20.6023 51.493 19.1697 51.493 17.5069C51.493 16.2598 51.6637 15.1463 52.0052 14.1665C52.3467 13.1717 52.844 12.3255 53.4973 11.6277C54.1653 10.9151 54.967 10.3732 55.9024 10.0021C56.8525 9.63089 57.9215 9.44531 59.1092 9.44531C60.0296 9.44531 60.9204 9.57151 61.7815 9.82389C62.6426 10.0614 63.4295 10.4549 64.1421 11.0042C64.3202 11.1378 64.4316 11.2937 64.4761 11.4718C64.5355 11.65 64.5429 11.8282 64.4984 12.0063C64.4539 12.1845 64.3648 12.3404 64.2312 12.474C64.1124 12.6076 63.9565 12.6892 63.7635 12.7189C63.5853 12.7338 63.3923 12.6744 63.1845 12.5408C62.5758 12.0954 61.9374 11.7762 61.2693 11.5832C60.6161 11.3902 59.896 11.2937 59.1092 11.2937C57.9363 11.2937 56.9416 11.5386 56.1251 12.0286C55.3085 12.5037 54.6924 13.2089 54.2767 14.1442C53.8758 15.0647 53.6754 16.1856 53.6754 17.5069C53.6754 19.5408 54.1505 21.0849 55.1007 22.1389C56.0657 23.193 57.4909 23.7201 59.3764 23.7201C60.0742 23.7201 60.7497 23.6533 61.4029 23.5197C62.071 23.386 62.7094 23.2005 63.3181 22.9629L62.8727 24.0764V18.7094H59.8441C59.5768 18.7094 59.3616 18.6352 59.1983 18.4867C59.0498 18.3383 58.9756 18.1378 58.9756 17.8855C58.9756 17.6331 59.0498 17.4401 59.1983 17.3065C59.3616 17.1728 59.5768 17.106 59.8441 17.106H63.7858C64.053 17.106 64.2609 17.1803 64.4093 17.3287C64.5726 17.4772 64.6543 17.6925 64.6543 17.9745V23.6978C64.6543 23.9353 64.6097 24.1432 64.5207 24.3214C64.4316 24.4847 64.2831 24.6034 64.0753 24.6777C63.4517 24.9301 62.7094 25.1379 61.8483 25.3012C60.9872 25.4645 60.141 25.5462 59.3096 25.5462Z" fill="#070707"/>
<path d="M71.4802 25.5462C70.7379 25.5462 70.0624 25.3977 69.4537 25.1008C68.8599 24.8039 68.3922 24.403 68.0507 23.8982C67.7241 23.3935 67.5608 22.8293 67.5608 22.2057C67.5608 21.404 67.7612 20.7731 68.1621 20.3128C68.5629 19.8526 69.2384 19.526 70.1886 19.333C71.1388 19.1251 72.4156 19.0212 74.019 19.0212H75.0656V20.3128H74.0635C72.9203 20.3128 72.0147 20.3648 71.3466 20.4687C70.6934 20.5727 70.2331 20.7582 69.9659 21.0255C69.6987 21.2779 69.5651 21.6342 69.5651 22.0944C69.5651 22.6734 69.7655 23.1485 70.1663 23.5197C70.582 23.8908 71.1462 24.0764 71.8588 24.0764C72.423 24.0764 72.9203 23.9428 73.3509 23.6755C73.7814 23.3935 74.1229 23.0223 74.3753 22.5621C74.6277 22.087 74.7539 21.5451 74.7539 20.9364V18.3754C74.7539 17.4995 74.5757 16.8685 74.2194 16.4825C73.8631 16.0816 73.2618 15.8812 72.4156 15.8812C71.9256 15.8812 71.4209 15.948 70.9012 16.0816C70.3816 16.2152 69.8397 16.4231 69.2756 16.7052C69.0529 16.8091 68.8599 16.8462 68.6965 16.8165C68.5332 16.772 68.3996 16.6829 68.2957 16.5493C68.2066 16.4008 68.1547 16.2449 68.1398 16.0816C68.1398 15.9035 68.1769 15.7327 68.2512 15.5694C68.3402 15.4061 68.4887 15.2874 68.6965 15.2131C69.3498 14.8865 69.9956 14.6564 70.634 14.5228C71.2872 14.3743 71.8959 14.3001 72.4601 14.3001C73.4251 14.3001 74.2194 14.456 74.8429 14.7677C75.4665 15.0647 75.9341 15.5323 76.2459 16.1707C76.5577 16.7943 76.7136 17.596 76.7136 18.5758V24.455C76.7136 24.7964 76.6319 25.0562 76.4686 25.2344C76.3053 25.4126 76.0678 25.5016 75.756 25.5016C75.4591 25.5016 75.2215 25.4126 75.0434 25.2344C74.8801 25.0562 74.7984 24.7964 74.7984 24.455V22.8738H74.9988C74.8801 23.4231 74.6574 23.8982 74.3307 24.2991C74.0041 24.6999 73.5958 25.0117 73.1059 25.2344C72.6308 25.4423 72.0889 25.5462 71.4802 25.5462Z" fill="#070707"/>
<path d="M80.9493 25.5016C80.6375 25.5016 80.3926 25.4126 80.2144 25.2344C80.0363 25.0562 79.9472 24.7964 79.9472 24.455V15.369C79.9472 15.0275 80.0363 14.7752 80.2144 14.6118C80.3926 14.4337 80.6375 14.3446 80.9493 14.3446C81.2611 14.3446 81.4986 14.4337 81.6619 14.6118C81.8401 14.7752 81.9292 15.0275 81.9292 15.369V17.2619L81.6842 16.8611C81.9663 16.0445 82.4191 15.4135 83.0426 14.9682C83.681 14.5228 84.4382 14.3001 85.3141 14.3001C86.2346 14.3001 86.9769 14.5228 87.5411 14.9682C88.1053 15.3987 88.4838 16.0594 88.6768 16.9501H88.3651C88.6323 16.1336 89.1074 15.4878 89.7903 15.0127C90.4881 14.5376 91.2972 14.3001 92.2177 14.3001C93.0342 14.3001 93.7023 14.4634 94.2219 14.79C94.7564 15.1018 95.1573 15.5769 95.4245 16.2152C95.6917 16.8388 95.8254 17.6405 95.8254 18.6204V24.455C95.8254 24.7964 95.7363 25.0562 95.5581 25.2344C95.38 25.4126 95.135 25.5016 94.8232 25.5016C94.4966 25.5016 94.2442 25.4126 94.0661 25.2344C93.8879 25.0562 93.7988 24.7964 93.7988 24.455V18.7094C93.7988 17.7593 93.6355 17.0615 93.3089 16.6161C92.9823 16.1707 92.433 15.948 91.6609 15.948C90.8147 15.948 90.1392 16.2449 89.6344 16.8388C89.1445 17.4178 88.8995 18.2195 88.8995 19.2439V24.455C88.8995 24.7964 88.8105 25.0562 88.6323 25.2344C88.469 25.4126 88.224 25.5016 87.8974 25.5016C87.5708 25.5016 87.3184 25.4126 87.1402 25.2344C86.9621 25.0562 86.873 24.7964 86.873 24.455V18.7094C86.873 17.7593 86.7097 17.0615 86.3831 16.6161C86.0565 16.1707 85.5071 15.948 84.7351 15.948C83.8889 15.948 83.2134 16.2449 82.7086 16.8388C82.2187 17.4178 81.9737 18.2195 81.9737 19.2439V24.455C81.9737 25.1527 81.6322 25.5016 80.9493 25.5016Z" fill="#070707"/>
<path d="M100.086 25.4571C99.7744 25.4571 99.5294 25.3606 99.3512 25.1676C99.1731 24.9746 99.084 24.7074 99.084 24.3659V15.4804C99.084 15.124 99.1731 14.8568 99.3512 14.6787C99.5294 14.4856 99.7744 14.3891 100.086 14.3891C100.413 14.3891 100.665 14.4856 100.843 14.6787C101.021 14.8568 101.111 15.124 101.111 15.4804V24.3659C101.111 24.7074 101.021 24.9746 100.843 25.1676C100.68 25.3606 100.428 25.4571 100.086 25.4571ZM100.086 11.984C99.6853 11.984 99.3661 11.8801 99.1285 11.6723C98.9059 11.4496 98.7945 11.1601 98.7945 10.8038C98.7945 10.4177 98.9059 10.1282 99.1285 9.93524C99.3661 9.72739 99.6853 9.62347 100.086 9.62347C100.517 9.62347 100.836 9.72739 101.044 9.93524C101.266 10.1282 101.378 10.4177 101.378 10.8038C101.378 11.1601 101.266 11.4496 101.044 11.6723C100.836 11.8801 100.517 11.984 100.086 11.984Z" fill="#070707"/>
<path d="M105.371 25.5016C105.059 25.5016 104.814 25.4126 104.636 25.2344C104.458 25.0562 104.369 24.7964 104.369 24.455V15.369C104.369 15.0275 104.458 14.7752 104.636 14.6118C104.814 14.4337 105.059 14.3446 105.371 14.3446C105.683 14.3446 105.92 14.4337 106.083 14.6118C106.262 14.7752 106.351 15.0275 106.351 15.369V17.1951L106.106 16.8611C106.417 16.0148 106.922 15.3764 107.62 14.9459C108.333 14.5153 109.142 14.3001 110.047 14.3001C110.923 14.3001 111.643 14.456 112.208 14.7677C112.772 15.0795 113.195 15.5546 113.477 16.193C113.759 16.8314 113.9 17.6405 113.9 18.6204V24.455C113.9 24.7964 113.811 25.0562 113.633 25.2344C113.469 25.4126 113.225 25.5016 112.898 25.5016C112.571 25.5016 112.319 25.4126 112.141 25.2344C111.963 25.0562 111.873 24.7964 111.873 24.455V18.7317C111.873 17.7667 111.688 17.0615 111.317 16.6161C110.946 16.1707 110.352 15.948 109.535 15.948C108.585 15.948 107.82 16.2449 107.241 16.8388C106.677 17.4178 106.395 18.2047 106.395 19.1994V24.455C106.395 25.1527 106.054 25.5016 105.371 25.5016Z" fill="#070707"/>
<path d="M121.99 29.5547C121.188 29.5547 120.409 29.4656 119.651 29.2875C118.909 29.1093 118.234 28.8346 117.625 28.4635C117.432 28.3447 117.298 28.2037 117.224 28.0404C117.165 27.8919 117.15 27.736 117.18 27.5727C117.224 27.4094 117.298 27.2609 117.402 27.1273C117.521 27.0085 117.655 26.9269 117.803 26.8823C117.966 26.8527 118.13 26.8898 118.293 26.9937C118.946 27.3649 119.57 27.6172 120.164 27.7509C120.758 27.8845 121.322 27.9513 121.856 27.9513C122.91 27.9513 123.697 27.6766 124.217 27.1273C124.751 26.5928 125.018 25.806 125.018 24.7667V22.3616H125.219C125.011 23.193 124.543 23.8537 123.816 24.3436C123.103 24.8336 122.272 25.0785 121.322 25.0785C120.342 25.0785 119.488 24.8558 118.761 24.4104C118.033 23.9502 117.469 23.3192 117.068 22.5175C116.667 21.701 116.467 20.7582 116.467 19.6893C116.467 18.8727 116.578 18.1378 116.801 17.4846C117.039 16.8165 117.365 16.2524 117.781 15.7921C118.211 15.317 118.724 14.9533 119.317 14.7009C119.911 14.4337 120.579 14.3001 121.322 14.3001C122.287 14.3001 123.126 14.545 123.838 15.035C124.551 15.5249 125.011 16.1856 125.219 17.017L124.974 17.3287V15.369C124.974 15.0275 125.063 14.7752 125.241 14.6118C125.419 14.4337 125.672 14.3446 125.998 14.3446C126.31 14.3446 126.555 14.4337 126.733 14.6118C126.911 14.7752 127 15.0275 127 15.369V24.4995C127 26.1771 126.57 27.4391 125.709 28.2853C124.863 29.1316 123.623 29.5547 121.99 29.5547ZM121.767 23.4751C122.435 23.4751 123.007 23.3266 123.482 23.0297C123.972 22.7179 124.343 22.28 124.595 21.7158C124.863 21.1368 124.996 20.4613 124.996 19.6893C124.996 18.5164 124.707 17.596 124.128 16.9279C123.549 16.2449 122.762 15.9035 121.767 15.9035C121.099 15.9035 120.52 16.0594 120.03 16.3711C119.555 16.6681 119.184 17.0986 118.917 17.6628C118.649 18.2269 118.516 18.9024 118.516 19.6893C118.516 20.8473 118.805 21.7678 119.384 22.4507C119.978 23.1336 120.772 23.4751 121.767 23.4751Z" fill="#070707"/>
<path d="M137.302 25.5016C137.005 25.5016 136.775 25.4126 136.612 25.2344C136.448 25.0562 136.367 24.8187 136.367 24.5218V10.4697C136.367 10.1579 136.448 9.9204 136.612 9.75709C136.79 9.57893 137.027 9.48985 137.324 9.48985C137.591 9.48985 137.799 9.54181 137.948 9.64574C138.111 9.74966 138.26 9.92782 138.393 10.1802L144.361 21.3818H143.671L149.639 10.1802C149.773 9.92782 149.914 9.74966 150.062 9.64574C150.211 9.54181 150.419 9.48985 150.686 9.48985C150.983 9.48985 151.213 9.57893 151.376 9.75709C151.54 9.9204 151.621 10.1579 151.621 10.4697V24.5218C151.621 24.8187 151.54 25.0562 151.376 25.2344C151.228 25.4126 150.998 25.5016 150.686 25.5016C150.374 25.5016 150.137 25.4126 149.973 25.2344C149.825 25.0562 149.751 24.8187 149.751 24.5218V12.5185H150.241L144.896 22.5175C144.777 22.7105 144.651 22.859 144.517 22.9629C144.399 23.052 144.228 23.0965 144.005 23.0965C143.797 23.0965 143.619 23.0446 143.471 22.9406C143.337 22.8367 143.218 22.6957 143.114 22.5175L137.703 12.4962H138.237V24.5218C138.237 24.8187 138.156 25.0562 137.992 25.2344C137.844 25.4126 137.614 25.5016 137.302 25.5016Z" fill="#070707"/>
<path d="M158.623 25.5462C157.88 25.5462 157.205 25.3977 156.596 25.1008C156.002 24.8039 155.535 24.403 155.193 23.8982C154.867 23.3935 154.703 22.8293 154.703 22.2057C154.703 21.404 154.904 20.7731 155.305 20.3128C155.705 19.8526 156.381 19.526 157.331 19.333C158.281 19.1251 159.558 19.0212 161.162 19.0212H162.208V20.3128H161.206C160.063 20.3128 159.157 20.3648 158.489 20.4687C157.836 20.5727 157.376 20.7582 157.108 21.0255C156.841 21.2779 156.708 21.6342 156.708 22.0944C156.708 22.6734 156.908 23.1485 157.309 23.5197C157.725 23.8908 158.289 24.0764 159.001 24.0764C159.566 24.0764 160.063 23.9428 160.493 23.6755C160.924 23.3935 161.265 23.0223 161.518 22.5621C161.77 22.087 161.896 21.5451 161.896 20.9364V18.3754C161.896 17.4995 161.718 16.8685 161.362 16.4825C161.006 16.0816 160.404 15.8812 159.558 15.8812C159.068 15.8812 158.563 15.948 158.044 16.0816C157.524 16.2152 156.982 16.4231 156.418 16.7052C156.195 16.8091 156.002 16.8462 155.839 16.8165C155.676 16.772 155.542 16.6829 155.438 16.5493C155.349 16.4008 155.297 16.2449 155.282 16.0816C155.282 15.9035 155.319 15.7327 155.394 15.5694C155.483 15.4061 155.631 15.2874 155.839 15.2131C156.492 14.8865 157.138 14.6564 157.777 14.5228C158.43 14.3743 159.038 14.3001 159.603 14.3001C160.568 14.3001 161.362 14.456 161.985 14.7677C162.609 15.0647 163.077 15.5323 163.388 16.1707C163.7 16.7943 163.856 17.596 163.856 18.5758V24.455C163.856 24.7964 163.774 25.0562 163.611 25.2344C163.448 25.4126 163.21 25.5016 162.899 25.5016C162.602 25.5016 162.364 25.4126 162.186 25.2344C162.023 25.0562 161.941 24.7964 161.941 24.455V22.8738H162.141C162.023 23.4231 161.8 23.8982 161.473 24.2991C161.147 24.6999 160.738 25.0117 160.248 25.2344C159.773 25.4423 159.231 25.5462 158.623 25.5462Z" fill="#070707"/>
<path d="M168.047 25.5016C167.736 25.5016 167.491 25.4126 167.312 25.2344C167.134 25.0562 167.045 24.7964 167.045 24.455V15.369C167.045 15.0275 167.134 14.7752 167.312 14.6118C167.491 14.4337 167.736 14.3446 168.047 14.3446C168.359 14.3446 168.597 14.4337 168.76 14.6118C168.938 14.7752 169.027 15.0275 169.027 15.369V17.1951L168.782 16.8611C169.094 16.0148 169.599 15.3764 170.297 14.9459C171.009 14.5153 171.818 14.3001 172.724 14.3001C173.6 14.3001 174.32 14.456 174.884 14.7677C175.448 15.0795 175.871 15.5546 176.153 16.193C176.436 16.8314 176.577 17.6405 176.577 18.6204V24.455C176.577 24.7964 176.487 25.0562 176.309 25.2344C176.146 25.4126 175.901 25.5016 175.574 25.5016C175.248 25.5016 174.995 25.4126 174.817 25.2344C174.639 25.0562 174.55 24.7964 174.55 24.455V18.7317C174.55 17.7667 174.364 17.0615 173.993 16.6161C173.622 16.1707 173.028 15.948 172.212 15.948C171.262 15.948 170.497 16.2449 169.918 16.8388C169.354 17.4178 169.072 18.2047 169.072 19.1994V24.455C169.072 25.1527 168.73 25.5016 168.047 25.5016Z" fill="#070707"/>
<path d="M183.241 25.5462C182.499 25.5462 181.823 25.3977 181.215 25.1008C180.621 24.8039 180.153 24.403 179.812 23.8982C179.485 23.3935 179.322 22.8293 179.322 22.2057C179.322 21.404 179.522 20.7731 179.923 20.3128C180.324 19.8526 180.999 19.526 181.949 19.333C182.9 19.1251 184.176 19.0212 185.78 19.0212H186.826V20.3128H185.824C184.681 20.3128 183.776 20.3648 183.107 20.4687C182.454 20.5727 181.994 20.7582 181.727 21.0255C181.46 21.2779 181.326 21.6342 181.326 22.0944C181.326 22.6734 181.526 23.1485 181.927 23.5197C182.343 23.8908 182.907 24.0764 183.62 24.0764C184.184 24.0764 184.681 23.9428 185.112 23.6755C185.542 23.3935 185.884 23.0223 186.136 22.5621C186.388 22.087 186.515 21.5451 186.515 20.9364V18.3754C186.515 17.4995 186.337 16.8685 185.98 16.4825C185.624 16.0816 185.023 15.8812 184.176 15.8812C183.686 15.8812 183.182 15.948 182.662 16.0816C182.142 16.2152 181.601 16.4231 181.036 16.7052C180.814 16.8091 180.621 16.8462 180.457 16.8165C180.294 16.772 180.16 16.6829 180.057 16.5493C179.967 16.4008 179.915 16.2449 179.901 16.0816C179.901 15.9035 179.938 15.7327 180.012 15.5694C180.101 15.4061 180.25 15.2874 180.457 15.2131C181.111 14.8865 181.756 14.6564 182.395 14.5228C183.048 14.3743 183.657 14.3001 184.221 14.3001C185.186 14.3001 185.98 14.456 186.604 14.7677C187.227 15.0647 187.695 15.5323 188.007 16.1707C188.318 16.7943 188.474 17.596 188.474 18.5758V24.455C188.474 24.7964 188.393 25.0562 188.229 25.2344C188.066 25.4126 187.829 25.5016 187.517 25.5016C187.22 25.5016 186.982 25.4126 186.804 25.2344C186.641 25.0562 186.559 24.7964 186.559 24.455V22.8738H186.76C186.641 23.4231 186.418 23.8982 186.092 24.2991C185.765 24.6999 185.357 25.0117 184.867 25.2344C184.392 25.4423 183.85 25.5462 183.241 25.5462Z" fill="#070707"/>
<path d="M196.54 29.5547C195.739 29.5547 194.959 29.4656 194.202 29.2875C193.46 29.1093 192.784 28.8346 192.176 28.4635C191.983 28.3447 191.849 28.2037 191.775 28.0404C191.715 27.8919 191.701 27.736 191.73 27.5727C191.775 27.4094 191.849 27.2609 191.953 27.1273C192.072 27.0085 192.205 26.9269 192.354 26.8823C192.517 26.8527 192.68 26.8898 192.844 26.9937C193.497 27.3649 194.121 27.6172 194.714 27.7509C195.308 27.8845 195.872 27.9513 196.407 27.9513C197.461 27.9513 198.248 27.6766 198.767 27.1273C199.302 26.5928 199.569 25.806 199.569 24.7667V22.3616H199.77C199.562 23.193 199.094 23.8537 198.367 24.3436C197.654 24.8336 196.823 25.0785 195.872 25.0785C194.893 25.0785 194.039 24.8558 193.311 24.4104C192.584 23.9502 192.02 23.3192 191.619 22.5175C191.218 21.701 191.018 20.7582 191.018 19.6893C191.018 18.8727 191.129 18.1378 191.352 17.4846C191.589 16.8165 191.916 16.2524 192.332 15.7921C192.762 15.317 193.274 14.9533 193.868 14.7009C194.462 14.4337 195.13 14.3001 195.872 14.3001C196.837 14.3001 197.676 14.545 198.389 15.035C199.101 15.5249 199.562 16.1856 199.77 17.017L199.525 17.3287V15.369C199.525 15.0275 199.614 14.7752 199.792 14.6118C199.97 14.4337 200.222 14.3446 200.549 14.3446C200.861 14.3446 201.106 14.4337 201.284 14.6118C201.462 14.7752 201.551 15.0275 201.551 15.369V24.4995C201.551 26.1771 201.121 27.4391 200.259 28.2853C199.413 29.1316 198.174 29.5547 196.54 29.5547ZM196.318 23.4751C196.986 23.4751 197.557 23.3266 198.033 23.0297C198.522 22.7179 198.894 22.28 199.146 21.7158C199.413 21.1368 199.547 20.4613 199.547 19.6893C199.547 18.5164 199.257 17.596 198.678 16.9279C198.099 16.2449 197.312 15.9035 196.318 15.9035C195.65 15.9035 195.071 16.0594 194.581 16.3711C194.106 16.6681 193.735 17.0986 193.467 17.6628C193.2 18.2269 193.066 18.9024 193.066 19.6893C193.066 20.8473 193.356 21.7678 193.935 22.4507C194.529 23.1336 195.323 23.4751 196.318 23.4751Z" fill="#070707"/>
<path d="M209.81 25.5462C208.637 25.5462 207.627 25.3235 206.781 24.8781C205.95 24.4179 205.304 23.772 204.844 22.9406C204.383 22.0944 204.153 21.0997 204.153 19.9565C204.153 18.8282 204.376 17.8409 204.821 16.9947C205.281 16.1484 205.905 15.4878 206.692 15.0127C207.494 14.5376 208.407 14.3001 209.431 14.3001C210.159 14.3001 210.812 14.4263 211.391 14.6787C211.985 14.9162 212.489 15.2651 212.905 15.7253C213.321 16.1856 213.633 16.7497 213.84 17.4178C214.063 18.071 214.174 18.8134 214.174 19.6448C214.174 19.8823 214.1 20.0679 213.952 20.2015C213.818 20.3203 213.618 20.3796 213.35 20.3796H205.734V19.088H212.838L212.46 19.3998C212.46 18.6278 212.341 17.9745 212.103 17.4401C211.881 16.8908 211.547 16.4751 211.101 16.193C210.671 15.9109 210.129 15.7699 209.476 15.7699C208.763 15.7699 208.154 15.9406 207.649 16.2821C207.145 16.6087 206.759 17.0763 206.491 17.685C206.224 18.2789 206.091 18.9692 206.091 19.7561V19.8897C206.091 21.2259 206.41 22.2354 207.048 22.9184C207.687 23.6013 208.607 23.9428 209.81 23.9428C210.285 23.9428 210.767 23.8834 211.257 23.7646C211.762 23.6458 212.244 23.4306 212.705 23.1188C212.927 22.9852 213.128 22.9258 213.306 22.9406C213.499 22.9406 213.655 23 213.774 23.1188C213.892 23.2227 213.967 23.3563 213.996 23.5197C214.026 23.6681 214.004 23.8314 213.929 24.0096C213.855 24.1877 213.714 24.3436 213.506 24.4772C213.016 24.8187 212.43 25.0859 211.747 25.2789C211.079 25.4571 210.433 25.5462 209.81 25.5462Z" fill="#070707"/>
<path d="M217.742 25.5016C217.43 25.5016 217.185 25.4126 217.007 25.2344C216.829 25.0562 216.739 24.7964 216.739 24.455V15.369C216.739 15.0275 216.829 14.7752 217.007 14.6118C217.185 14.4337 217.43 14.3446 217.742 14.3446C218.053 14.3446 218.291 14.4337 218.454 14.6118C218.632 14.7752 218.721 15.0275 218.721 15.369V17.2619L218.476 16.8611C218.759 16.0445 219.211 15.4135 219.835 14.9682C220.473 14.5228 221.23 14.3001 222.106 14.3001C223.027 14.3001 223.769 14.5228 224.333 14.9682C224.898 15.3987 225.276 16.0594 225.469 16.9501H225.157C225.425 16.1336 225.9 15.4878 226.583 15.0127C227.28 14.5376 228.089 14.3001 229.01 14.3001C229.827 14.3001 230.495 14.4634 231.014 14.79C231.549 15.1018 231.95 15.5769 232.217 16.2152C232.484 16.8388 232.618 17.6405 232.618 18.6204V24.455C232.618 24.7964 232.529 25.0562 232.35 25.2344C232.172 25.4126 231.927 25.5016 231.615 25.5016C231.289 25.5016 231.036 25.4126 230.858 25.2344C230.68 25.0562 230.591 24.7964 230.591 24.455V18.7094C230.591 17.7593 230.428 17.0615 230.101 16.6161C229.775 16.1707 229.225 15.948 228.453 15.948C227.607 15.948 226.931 16.2449 226.427 16.8388C225.937 17.4178 225.692 18.2195 225.692 19.2439V24.455C225.692 24.7964 225.603 25.0562 225.425 25.2344C225.261 25.4126 225.016 25.5016 224.69 25.5016C224.363 25.5016 224.111 25.4126 223.933 25.2344C223.754 25.0562 223.665 24.7964 223.665 24.455V18.7094C223.665 17.7593 223.502 17.0615 223.175 16.6161C222.849 16.1707 222.299 15.948 221.527 15.948C220.681 15.948 220.006 16.2449 219.501 16.8388C219.011 17.4178 218.766 18.2195 218.766 19.2439V24.455C218.766 25.1527 218.425 25.5016 217.742 25.5016Z" fill="#070707"/>
<path d="M240.887 25.5462C239.714 25.5462 238.705 25.3235 237.858 24.8781C237.027 24.4179 236.381 23.772 235.921 22.9406C235.461 22.0944 235.23 21.0997 235.23 19.9565C235.23 18.8282 235.453 17.8409 235.899 16.9947C236.359 16.1484 236.982 15.4878 237.769 15.0127C238.571 14.5376 239.484 14.3001 240.508 14.3001C241.236 14.3001 241.889 14.4263 242.468 14.6787C243.062 14.9162 243.567 15.2651 243.982 15.7253C244.398 16.1856 244.71 16.7497 244.918 17.4178C245.14 18.071 245.252 18.8134 245.252 19.6448C245.252 19.8823 245.178 20.0679 245.029 20.2015C244.895 20.3203 244.695 20.3796 244.428 20.3796H236.812V19.088H243.916L243.537 19.3998C243.537 18.6278 243.418 17.9745 243.181 17.4401C242.958 16.8908 242.624 16.4751 242.179 16.193C241.748 15.9109 241.206 15.7699 240.553 15.7699C239.84 15.7699 239.232 15.9406 238.727 16.2821C238.222 16.6087 237.836 17.0763 237.569 17.685C237.302 18.2789 237.168 18.9692 237.168 19.7561V19.8897C237.168 21.2259 237.487 22.2354 238.126 22.9184C238.764 23.6013 239.684 23.9428 240.887 23.9428C241.362 23.9428 241.845 23.8834 242.334 23.7646C242.839 23.6458 243.322 23.4306 243.782 23.1188C244.005 22.9852 244.205 22.9258 244.383 22.9406C244.576 22.9406 244.732 23 244.851 23.1188C244.97 23.2227 245.044 23.3563 245.074 23.5197C245.103 23.6681 245.081 23.8314 245.007 24.0096C244.933 24.1877 244.792 24.3436 244.584 24.4772C244.094 24.8187 243.507 25.0859 242.824 25.2789C242.156 25.4571 241.51 25.5462 240.887 25.5462Z" fill="#070707"/>
<path d="M248.774 25.5016C248.463 25.5016 248.218 25.4126 248.039 25.2344C247.861 25.0562 247.772 24.7964 247.772 24.455V15.369C247.772 15.0275 247.861 14.7752 248.039 14.6118C248.218 14.4337 248.463 14.3446 248.774 14.3446C249.086 14.3446 249.324 14.4337 249.487 14.6118C249.665 14.7752 249.754 15.0275 249.754 15.369V17.1951L249.509 16.8611C249.821 16.0148 250.326 15.3764 251.024 14.9459C251.736 14.5153 252.545 14.3001 253.451 14.3001C254.327 14.3001 255.047 14.456 255.611 14.7677C256.175 15.0795 256.598 15.5546 256.88 16.193C257.163 16.8314 257.304 17.6405 257.304 18.6204V24.455C257.304 24.7964 257.214 25.0562 257.036 25.2344C256.873 25.4126 256.628 25.5016 256.301 25.5016C255.975 25.5016 255.722 25.4126 255.544 25.2344C255.366 25.0562 255.277 24.7964 255.277 24.455V18.7317C255.277 17.7667 255.091 17.0615 254.72 16.6161C254.349 16.1707 253.755 15.948 252.939 15.948C251.989 15.948 251.224 16.2449 250.645 16.8388C250.081 17.4178 249.799 18.2047 249.799 19.1994V24.455C249.799 25.1527 249.457 25.5016 248.774 25.5016Z" fill="#070707"/>
<path d="M265.015 25.5462C264.139 25.5462 263.404 25.3903 262.81 25.0785C262.231 24.7667 261.793 24.3139 261.496 23.7201C261.214 23.1262 261.073 22.3988 261.073 21.5377V16.0594H259.648C259.381 16.0594 259.173 15.9926 259.024 15.8589C258.876 15.7105 258.802 15.5175 258.802 15.2799C258.802 15.0275 258.876 14.8345 259.024 14.7009C259.173 14.5673 259.381 14.5005 259.648 14.5005H261.073V12.0731C261.073 11.7317 261.162 11.4793 261.34 11.316C261.518 11.1378 261.771 11.0487 262.097 11.0487C262.424 11.0487 262.669 11.1378 262.832 11.316C263.01 11.4793 263.1 11.7317 263.1 12.0731V14.5005H265.794C266.076 14.5005 266.292 14.5673 266.44 14.7009C266.588 14.8345 266.663 15.0275 266.663 15.2799C266.663 15.5175 266.588 15.7105 266.44 15.8589C266.292 15.9926 266.076 16.0594 265.794 16.0594H263.1V21.3595C263.1 22.1761 263.27 22.7922 263.612 23.2079C263.953 23.6236 264.517 23.8314 265.304 23.8314C265.586 23.8314 265.824 23.8092 266.017 23.7646C266.21 23.7052 266.381 23.6755 266.529 23.6755C266.663 23.6607 266.774 23.7052 266.863 23.8092C266.967 23.9131 267.019 24.1061 267.019 24.3882C267.019 24.596 266.982 24.789 266.908 24.9672C266.848 25.1305 266.722 25.2418 266.529 25.3012C266.351 25.3606 266.113 25.4126 265.816 25.4571C265.52 25.5165 265.252 25.5462 265.015 25.5462Z" fill="#070707"/>
<defs>
<filter id="filter0_b_319_309" x="-3.83091" y="-3.66685" width="42.5495" height="46.3647" filterUnits="userSpaceOnUse" color-interpolation-filters="sRGB">
<feFlood flood-opacity="0" result="BackgroundImageFix"/>
<feGaussianBlur in="BackgroundImageFix" stdDeviation="2.36028"/>
<feComposite in2="SourceAlpha" operator="in" result="effect1_backgroundBlur_319_309"/>
<feBlend mode="normal" in="SourceGraphic" in2="effect1_backgroundBlur_319_309" result="shape"/>
</filter>
</defs>
</svg>
