<svg width="183" height="46" viewBox="0 0 183 46" fill="none" xmlns="http://www.w3.org/2000/svg">
<g filter="url(#filter0_b_348_3719)">
<path d="M19.6905 4.05531C18.42 5.75383 13.1793 6.75374 10.7178 7.04137C11.5105 8.16142 13.2889 8.95744 16.0593 9.33668C18.2756 9.64008 20.2422 8.77701 20.9484 8.30756C22.7858 6.78191 21.8334 5.16726 19.6905 4.05531Z" fill="#527BEF"/>
<path d="M26.4781 13.0504C30.4899 11.1565 27.9937 7.71199 26.3886 6.24753C26.0934 7.77869 25.306 8.01756 25.1012 8.19696C24.9374 8.34048 23.6973 9.00746 23.0978 9.32301C21.4113 10.0341 19.5372 10.6677 18.3618 10.9447C17.5782 11.1294 16.7939 11.3245 15.13 11.6978C12.6831 12.2468 9.0891 12.6506 5.71709 12.6188C6.98326 13.8667 8.72285 15.2433 13.5982 15.8603C17.4986 16.3539 18.5893 15.7096 18.6471 15.3258C19.9617 8.80981 25.5693 12.1177 26.4781 13.0504Z" fill="#527BEF"/>
<path d="M31.487 21.5162C33.3372 20.3679 34.3027 19.3415 34.8018 18.5836C34.9534 20.5822 35.7436 24.6121 32.5403 26.7937C30.3108 28.312 29.2002 26.754 28.8884 25.6271C28.4675 23.693 29.6369 22.6646 31.487 21.5162Z" fill="#527BEF"/>
<path d="M11.3185 26.8491C6.36288 27.3182 4.40802 27.3389 0.913785 27.1666C4.75867 30.5594 9.95951 31.114 14.7875 31.2896C18.6499 31.4301 21.2567 30.7122 22.0773 30.3357C25.9744 28.3248 23.8277 24.8654 21.5225 25.1342C20.6075 25.2409 15.3381 26.4686 11.3185 26.8491Z" fill="#527BEF"/>
<path d="M31.1708 29.7502C31.1708 29.7502 34.2076 27.4699 35.0249 26.643C34.5689 29.8591 33.4537 31.8635 32.4827 32.6361C30.8863 34.0023 29.9741 34.6552 29.2369 34.5145C28.1897 31.8634 31.1708 29.7502 31.1708 29.7502Z" fill="#527BEF"/>
<path d="M29.1199 36.2632C30.2224 35.2181 31.129 34.4776 32.3794 34.1794C30.6564 37.7205 27.874 39.3603 26.6982 39.7375C26.6591 38.8342 27.9264 37.3945 29.1199 36.2632Z" fill="#527BEF"/>
<path d="M15.1076 39.6959C13.2062 39.9287 10.2187 40.0693 10.2187 40.0693C10.7169 40.5586 12.6107 41.6105 16.2011 41.9042C19.7914 42.1978 21.3668 41.5271 21.8194 41.2459C24.4851 39.5894 23.6158 38.2008 22.0105 38.3897C22.0105 38.3897 17.8287 39.3627 15.1076 39.6959Z" fill="#527BEF"/>
<path fill-rule="evenodd" clip-rule="evenodd" d="M21.0061 32.8525C18.1547 33.7729 12.0448 34.3278 12.0448 34.3278C12.0448 34.3278 11.5495 34.4927 3.63206 34.3976C7.69386 36.9997 12.4427 37.4025 14.8491 37.6066C14.9893 37.6185 15.1215 37.6297 15.2451 37.6407C17.0426 37.7996 20.0947 37.6429 21.6278 37.0524C26.2361 35.2774 23.9486 31.9026 21.0061 32.8525Z" fill="#527BEF"/>
<path d="M28.1108 15.0866C29.3652 14.589 31.7873 13.1614 31.4403 11.4322C31.7282 11.4514 34.2855 15.0152 32.7933 17.1448C32.2916 17.919 30.771 19.7041 28.7025 20.6514C26.1167 21.8354 23.2753 22.5176 22.5905 22.6657C21.9058 22.8137 17.5358 23.2876 15.1165 23.4257C11.8088 23.6144 9.05704 23.214 7.06742 22.6932C5.07781 22.1723 3.4796 21.6283 1.59971 19.467C6.86048 19.5848 13.6406 18.7381 16.9048 18.311L19.3449 18.0488C19.8755 18.7628 21.2214 20.364 23.2125 20.5748C25.7014 20.8383 28.1654 20.0338 28.1108 15.0866Z" fill="#527BEF"/>
</g>
<path d="M48.596 17.1351C48.2621 17.1351 48.0041 17.044 47.822 16.8619C47.6399 16.6646 47.5488 16.3914 47.5488 16.0424V1.86014C47.5488 1.49591 47.6399 1.22274 47.822 1.04063C48.0041 0.858511 48.2621 0.767453 48.596 0.767453C48.945 0.767453 49.2106 0.858511 49.3927 1.04063C49.5749 1.22274 49.6659 1.49591 49.6659 1.86014V16.0424C49.6659 16.3914 49.5749 16.6646 49.3927 16.8619C49.2258 17.044 48.9602 17.1351 48.596 17.1351Z" fill="white"/>
<path d="M60.9051 17.1806C59.1902 17.1806 57.7333 16.8543 56.5344 16.2017C55.3506 15.534 54.4476 14.5854 53.8254 13.3562C53.2183 12.1269 52.9148 10.6624 52.9148 8.96264C52.9148 7.68783 53.0894 6.54961 53.4384 5.54798C53.7875 4.53117 54.2959 3.66612 54.9636 2.95283C55.6466 2.22437 56.4661 1.67044 57.4222 1.29103C58.3935 0.911627 59.4861 0.721924 60.7002 0.721924C61.6412 0.721924 62.5518 0.850922 63.432 1.10892C64.3122 1.35174 65.1165 1.75391 65.845 2.31543C66.0271 2.45202 66.1409 2.61137 66.1865 2.79348C66.2472 2.9756 66.2548 3.15772 66.2092 3.33983C66.1637 3.52195 66.0726 3.6813 65.9361 3.81788C65.8147 3.95447 65.6553 4.03794 65.458 4.06829C65.2759 4.08347 65.0786 4.02276 64.8661 3.88618C64.2439 3.43089 63.5913 3.1046 62.9084 2.90731C62.2406 2.71002 61.5046 2.61137 60.7002 2.61137C59.5013 2.61137 58.4845 2.86178 57.6498 3.36259C56.8151 3.84823 56.1853 4.56911 55.7604 5.52521C55.3506 6.46614 55.1457 7.61195 55.1457 8.96264C55.1457 11.0418 55.6314 12.6201 56.6027 13.6976C57.5891 14.7751 59.046 15.3139 60.9734 15.3139C61.6867 15.3139 62.3772 15.2456 63.045 15.109C63.7279 14.9724 64.3805 14.7827 65.0027 14.5399L64.5474 15.6781V10.1919H61.4515C61.1783 10.1919 60.9582 10.116 60.7913 9.96427C60.6395 9.81251 60.5637 9.60763 60.5637 9.34963C60.5637 9.09164 60.6395 8.89434 60.7913 8.75776C60.9582 8.62117 61.1783 8.55288 61.4515 8.55288H65.4808C65.7539 8.55288 65.9664 8.62876 66.1182 8.78052C66.2851 8.93228 66.3686 9.15234 66.3686 9.44069V15.2911C66.3686 15.534 66.3231 15.7464 66.232 15.9285C66.1409 16.0955 65.9892 16.2169 65.7767 16.2928C65.1393 16.5508 64.3805 16.7632 63.5003 16.9302C62.62 17.0971 61.755 17.1806 60.9051 17.1806Z" fill="white"/>
<path d="M73.3462 17.1806C72.5874 17.1806 71.8969 17.0288 71.2747 16.7253C70.6676 16.4218 70.1896 16.012 69.8405 15.496C69.5066 14.98 69.3397 14.4033 69.3397 13.7659C69.3397 12.9464 69.5446 12.3014 69.9543 11.831C70.3641 11.3605 71.0546 11.0266 72.0259 10.8293C72.9972 10.6169 74.3023 10.5106 75.9414 10.5106H77.0113V11.831H75.9869C74.8183 11.831 73.8926 11.8841 73.2096 11.9903C72.5419 12.0965 72.0714 12.2862 71.7982 12.5594C71.5251 12.8174 71.3885 13.1816 71.3885 13.6521C71.3885 14.244 71.5934 14.7296 72.0031 15.109C72.4281 15.4884 73.0048 15.6781 73.7332 15.6781C74.3099 15.6781 74.8183 15.5416 75.2584 15.2684C75.6986 14.98 76.0476 14.6006 76.3056 14.1302C76.5636 13.6445 76.6926 13.0906 76.6926 12.4684V9.85045C76.6926 8.95505 76.5105 8.31006 76.1462 7.91547C75.782 7.50572 75.1674 7.30084 74.3023 7.30084C73.8015 7.30084 73.2855 7.36913 72.7544 7.50572C72.2232 7.6423 71.6693 7.85477 71.0926 8.14312C70.8649 8.24935 70.6676 8.28729 70.5007 8.25694C70.3337 8.21141 70.1972 8.12035 70.0909 7.98377C69.9999 7.83201 69.9467 7.67265 69.9316 7.50572C69.9316 7.3236 69.9695 7.14907 70.0454 6.98213C70.1364 6.8152 70.2882 6.69379 70.5007 6.6179C71.1684 6.28403 71.8286 6.04879 72.4812 5.91221C73.1489 5.76045 73.7712 5.68456 74.3479 5.68456C75.3343 5.68456 76.1463 5.84391 76.7837 6.16262C77.4211 6.46614 77.8991 6.94419 78.2178 7.59677C78.5365 8.23418 78.6959 9.0537 78.6959 10.0553V16.0651C78.6959 16.4142 78.6124 16.6798 78.4455 16.8619C78.2785 17.044 78.0357 17.1351 77.717 17.1351C77.4135 17.1351 77.1706 17.044 76.9885 16.8619C76.8216 16.6798 76.7381 16.4142 76.7381 16.0651V14.4489H76.943C76.8216 15.0104 76.5939 15.496 76.2601 15.9058C75.9262 16.3155 75.5088 16.6342 75.008 16.8619C74.5224 17.0744 73.9685 17.1806 73.3462 17.1806Z" fill="white"/>
<path d="M83.0257 17.1351C82.707 17.1351 82.4566 17.044 82.2745 16.8619C82.0924 16.6798 82.0013 16.4142 82.0013 16.0651V6.77726C82.0013 6.4282 82.0924 6.1702 82.2745 6.00327C82.4566 5.82115 82.707 5.73009 83.0257 5.73009C83.3444 5.73009 83.5872 5.82115 83.7542 6.00327C83.9363 6.1702 84.0274 6.4282 84.0274 6.77726V8.71223L83.7769 8.30247C84.0653 7.46778 84.5282 6.82278 85.1656 6.3675C85.8182 5.91221 86.5921 5.68456 87.4875 5.68456C88.4285 5.68456 89.1873 5.91221 89.764 6.3675C90.3407 6.80761 90.7277 7.48295 90.925 8.39353H90.6063C90.8794 7.55883 91.3651 6.89867 92.0632 6.41302C92.7765 5.92738 93.6036 5.68456 94.5445 5.68456C95.3792 5.68456 96.0621 5.8515 96.5933 6.18538C97.1397 6.50408 97.5494 6.98972 97.8226 7.6423C98.0958 8.2797 98.2323 9.09922 98.2323 10.1009V16.0651C98.2323 16.4142 98.1413 16.6798 97.9592 16.8619C97.7771 17.044 97.5266 17.1351 97.2079 17.1351C96.8741 17.1351 96.6161 17.044 96.434 16.8619C96.2518 16.6798 96.1608 16.4142 96.1608 16.0651V10.1919C96.1608 9.22063 95.9938 8.50735 95.66 8.05206C95.3261 7.59677 94.7646 7.36913 93.9754 7.36913C93.1104 7.36913 92.4198 7.67265 91.9038 8.27971C91.403 8.87158 91.1526 9.6911 91.1526 10.7383V16.0651C91.1526 16.4142 91.0616 16.6798 90.8794 16.8619C90.7125 17.044 90.4621 17.1351 90.1282 17.1351C89.7943 17.1351 89.5363 17.044 89.3542 16.8619C89.1721 16.6798 89.0811 16.4142 89.0811 16.0651V10.1919C89.0811 9.22063 88.9141 8.50735 88.5802 8.05206C88.2464 7.59677 87.6848 7.36913 86.8957 7.36913C86.0306 7.36913 85.3401 7.67265 84.8241 8.27971C84.3233 8.87158 84.0729 9.6911 84.0729 10.7383V16.0651C84.0729 16.7784 83.7238 17.1351 83.0257 17.1351Z" fill="white"/>
<path d="M102.588 17.0895C102.269 17.0895 102.019 16.9909 101.837 16.7936C101.654 16.5963 101.563 16.3231 101.563 15.9741V6.89108C101.563 6.52685 101.654 6.25367 101.837 6.07156C102.019 5.87427 102.269 5.77562 102.588 5.77562C102.922 5.77562 103.18 5.87427 103.362 6.07156C103.544 6.25367 103.635 6.52685 103.635 6.89108V15.9741C103.635 16.3231 103.544 16.5963 103.362 16.7936C103.195 16.9909 102.937 17.0895 102.588 17.0895ZM102.588 3.31707C102.178 3.31707 101.852 3.21083 101.609 2.99836C101.381 2.77072 101.267 2.47478 101.267 2.11055C101.267 1.71597 101.381 1.42003 101.609 1.22274C101.852 1.01027 102.178 0.904039 102.588 0.904039C103.028 0.904039 103.354 1.01027 103.567 1.22274C103.794 1.42003 103.908 1.71597 103.908 2.11055C103.908 2.47478 103.794 2.77072 103.567 2.99836C103.354 3.21083 103.028 3.31707 102.588 3.31707Z" fill="white"/>
<path d="M107.99 17.1351C107.671 17.1351 107.421 17.044 107.239 16.8619C107.057 16.6798 106.966 16.4142 106.966 16.0651V6.77726C106.966 6.4282 107.057 6.1702 107.239 6.00327C107.421 5.82115 107.671 5.73009 107.99 5.73009C108.309 5.73009 108.551 5.82115 108.718 6.00327C108.9 6.1702 108.992 6.4282 108.992 6.77726V8.64394L108.741 8.30247C109.06 7.43742 109.576 6.78484 110.289 6.34473C111.018 5.90462 111.845 5.68456 112.77 5.68456C113.666 5.68456 114.402 5.84391 114.979 6.16262C115.555 6.48132 115.988 6.96696 116.276 7.61954C116.565 8.27212 116.709 9.09922 116.709 10.1009V16.0651C116.709 16.4142 116.618 16.6798 116.436 16.8619C116.269 17.044 116.018 17.1351 115.684 17.1351C115.35 17.1351 115.092 17.044 114.91 16.8619C114.728 16.6798 114.637 16.4142 114.637 16.0651V10.2147C114.637 9.22822 114.447 8.50735 114.068 8.05206C113.689 7.59677 113.082 7.36913 112.247 7.36913C111.276 7.36913 110.494 7.67265 109.902 8.27971C109.325 8.87158 109.037 9.67592 109.037 10.6927V16.0651C109.037 16.7784 108.688 17.1351 107.99 17.1351Z" fill="white"/>
<path d="M124.978 21.2782C124.159 21.2782 123.362 21.1871 122.588 21.005C121.829 20.8229 121.139 20.5421 120.516 20.1627C120.319 20.0413 120.182 19.8971 120.107 19.7302C120.046 19.5784 120.031 19.4191 120.061 19.2521C120.107 19.0852 120.183 18.9334 120.289 18.7969C120.41 18.6754 120.547 18.592 120.698 18.5464C120.865 18.5161 121.032 18.554 121.199 18.6603C121.867 19.0397 122.504 19.2977 123.112 19.4343C123.719 19.5708 124.295 19.6391 124.842 19.6391C125.919 19.6391 126.723 19.3584 127.255 18.7969C127.801 18.2505 128.074 17.4462 128.074 16.3838V13.9253H128.279C128.067 14.7751 127.589 15.4505 126.845 15.9513C126.116 16.4521 125.267 16.7025 124.295 16.7025C123.294 16.7025 122.421 16.4749 121.677 16.0196C120.934 15.5491 120.357 14.9041 119.947 14.0846C119.538 13.2499 119.333 12.2862 119.333 11.1935C119.333 10.3589 119.446 9.60763 119.674 8.93987C119.917 8.25694 120.251 7.68024 120.676 7.20978C121.116 6.72414 121.639 6.35232 122.246 6.09432C122.854 5.82115 123.536 5.68456 124.295 5.68456C125.282 5.68456 126.139 5.93497 126.868 6.43579C127.596 6.93661 128.067 7.61195 128.279 8.46182L128.029 8.78052V6.77726C128.029 6.4282 128.12 6.1702 128.302 6.00327C128.484 5.82115 128.742 5.73009 129.076 5.73009C129.394 5.73009 129.645 5.82115 129.827 6.00327C130.009 6.1702 130.1 6.4282 130.1 6.77726V16.1107C130.1 17.8256 129.66 19.1156 128.78 19.9806C127.915 20.8457 126.648 21.2782 124.978 21.2782ZM124.751 15.0635C125.433 15.0635 126.018 14.9117 126.503 14.6082C127.004 14.2895 127.384 13.8418 127.642 13.2651C127.915 12.6732 128.051 11.9827 128.051 11.1935C128.051 9.99462 127.755 9.0537 127.164 8.37076C126.572 7.67265 125.767 7.3236 124.751 7.3236C124.068 7.3236 123.476 7.48295 122.975 7.80165C122.489 8.10518 122.11 8.54529 121.837 9.12199C121.564 9.69869 121.427 10.3892 121.427 11.1935C121.427 12.3773 121.723 13.3182 122.315 14.0163C122.922 14.7144 123.734 15.0635 124.751 15.0635Z" fill="white"/>
<path d="M48.5505 41.1351C48.2469 41.1351 48.0117 41.044 47.8448 40.8619C47.6778 40.6798 47.5944 40.437 47.5944 40.1334V25.7691C47.5944 25.4504 47.6778 25.2076 47.8448 25.0406C48.0269 24.8585 48.2697 24.7675 48.5732 24.7675C48.8464 24.7675 49.0589 24.8206 49.2106 24.9268C49.3776 25.033 49.5293 25.2152 49.6659 25.4731L55.7668 36.9236H55.0611L61.1619 25.4731C61.2985 25.2152 61.4427 25.033 61.5945 24.9268C61.7462 24.8206 61.9587 24.7675 62.2319 24.7675C62.5354 24.7675 62.7706 24.8585 62.9376 25.0406C63.1045 25.2076 63.188 25.4504 63.188 25.7691V40.1334C63.188 40.437 63.1045 40.6798 62.9376 40.8619C62.7858 41.044 62.5506 41.1351 62.2319 41.1351C61.9132 41.1351 61.6703 41.044 61.5034 40.8619C61.3516 40.6798 61.2758 40.437 61.2758 40.1334V27.8634H61.7766L56.3131 38.0846C56.1917 38.2819 56.0627 38.4337 55.9261 38.5399C55.8047 38.631 55.6302 38.6765 55.4025 38.6765C55.1901 38.6765 55.008 38.6234 54.8562 38.5172C54.7196 38.4109 54.5982 38.2667 54.492 38.0846L48.9602 27.8406H49.5066V40.1334C49.5066 40.437 49.4231 40.6798 49.2562 40.8619C49.1044 41.044 48.8692 41.1351 48.5505 41.1351Z" fill="white"/>
<path d="M70.3451 41.1806C69.5862 41.1806 68.8957 41.0288 68.2735 40.7253C67.6665 40.4218 67.1884 40.012 66.8393 39.496C66.5055 38.98 66.3385 38.4033 66.3385 37.7659C66.3385 36.9464 66.5434 36.3014 66.9532 35.831C67.3629 35.3605 68.0534 35.0266 69.0247 34.8293C69.996 34.6169 71.3012 34.5106 72.9402 34.5106H74.0101V35.831H72.9857C71.8172 35.831 70.8914 35.8841 70.2085 35.9903C69.5407 36.0965 69.0703 36.2862 68.7971 36.5594C68.5239 36.8174 68.3873 37.1816 68.3873 37.6521C68.3873 38.244 68.5922 38.7296 69.002 39.109C69.4269 39.4884 70.0036 39.6781 70.7321 39.6781C71.3088 39.6781 71.8172 39.5416 72.2573 39.2684C72.6974 38.98 73.0464 38.6006 73.3044 38.1302C73.5624 37.6445 73.6914 37.0906 73.6914 36.4684V33.8504C73.6914 32.955 73.5093 32.3101 73.1451 31.9155C72.7809 31.5057 72.1662 31.3008 71.3012 31.3008C70.8004 31.3008 70.2844 31.3691 69.7532 31.5057C69.222 31.6423 68.6681 31.8548 68.0914 32.1431C67.8637 32.2494 67.6665 32.2873 67.4995 32.2569C67.3326 32.2114 67.196 32.1204 67.0898 31.9838C66.9987 31.832 66.9456 31.6727 66.9304 31.5057C66.9304 31.3236 66.9683 31.1491 67.0442 30.9821C67.1353 30.8152 67.287 30.6938 67.4995 30.6179C68.1673 30.284 68.8274 30.0488 69.48 29.9122C70.1478 29.7604 70.77 29.6846 71.3467 29.6846C72.3332 29.6846 73.1451 29.8439 73.7825 30.1626C74.4199 30.4661 74.8979 30.9442 75.2166 31.5968C75.5353 32.2342 75.6947 33.0537 75.6947 34.0553V40.0651C75.6947 40.4142 75.6112 40.6798 75.4443 40.8619C75.2773 41.044 75.0345 41.1351 74.7158 41.1351C74.4123 41.1351 74.1695 41.044 73.9874 40.8619C73.8204 40.6798 73.737 40.4142 73.737 40.0651V38.4489H73.9418C73.8204 39.0104 73.5928 39.496 73.2589 39.9058C72.925 40.3155 72.5077 40.6342 72.0069 40.8619C71.5212 41.0744 70.9673 41.1806 70.3451 41.1806Z" fill="white"/>
<path d="M79.979 41.1351C79.6603 41.1351 79.4099 41.044 79.2278 40.8619C79.0457 40.6798 78.9546 40.4142 78.9546 40.0651V30.7773C78.9546 30.4282 79.0457 30.1702 79.2278 30.0033C79.4099 29.8212 79.6603 29.7301 79.979 29.7301C80.2977 29.7301 80.5406 29.8212 80.7075 30.0033C80.8896 30.1702 80.9807 30.4282 80.9807 30.7773V32.6439L80.7303 32.3025C81.049 31.4374 81.5649 30.7848 82.2782 30.3447C83.0067 29.9046 83.8338 29.6846 84.7596 29.6846C85.655 29.6846 86.391 29.8439 86.9677 30.1626C87.5444 30.4813 87.9769 30.967 88.2653 31.6195C88.5536 32.2721 88.6978 33.0992 88.6978 34.1009V40.0651C88.6978 40.4142 88.6067 40.6798 88.4246 40.8619C88.2577 41.044 88.0073 41.1351 87.6734 41.1351C87.3395 41.1351 87.0815 41.044 86.8994 40.8619C86.7173 40.6798 86.6262 40.4142 86.6262 40.0651V34.2147C86.6262 33.2282 86.4365 32.5073 86.0571 32.0521C85.6777 31.5968 85.0707 31.3691 84.236 31.3691C83.2647 31.3691 82.4831 31.6727 81.8912 32.2797C81.3145 32.8716 81.0262 33.6759 81.0262 34.6927V40.0651C81.0262 40.7784 80.6771 41.1351 79.979 41.1351Z" fill="white"/>
<path d="M95.5104 41.1806C94.7516 41.1806 94.0611 41.0288 93.4388 40.7253C92.8318 40.4218 92.3537 40.012 92.0047 39.496C91.6708 38.98 91.5039 38.4033 91.5039 37.7659C91.5039 36.9464 91.7087 36.3014 92.1185 35.831C92.5283 35.3605 93.2188 35.0266 94.1901 34.8293C95.1613 34.6169 96.4665 34.5106 98.1055 34.5106H99.1755V35.831H98.1511C96.9825 35.831 96.0567 35.8841 95.3738 35.9903C94.7061 36.0965 94.2356 36.2862 93.9624 36.5594C93.6892 36.8174 93.5527 37.1816 93.5527 37.6521C93.5527 38.244 93.7575 38.7296 94.1673 39.109C94.5922 39.4884 95.1689 39.6781 95.8974 39.6781C96.4741 39.6781 96.9825 39.5416 97.4226 39.2684C97.8627 38.98 98.2118 38.6006 98.4698 38.1302C98.7278 37.6445 98.8568 37.0906 98.8568 36.4684V33.8504C98.8568 32.955 98.6746 32.3101 98.3104 31.9155C97.9462 31.5057 97.3316 31.3008 96.4665 31.3008C95.9657 31.3008 95.4497 31.3691 94.9185 31.5057C94.3874 31.6423 93.8334 31.8548 93.2567 32.1431C93.0291 32.2494 92.8318 32.2873 92.6648 32.2569C92.4979 32.2114 92.3613 32.1204 92.2551 31.9838C92.164 31.832 92.1109 31.6727 92.0957 31.5057C92.0957 31.3236 92.1337 31.1491 92.2096 30.9821C92.3006 30.8152 92.4524 30.6938 92.6648 30.6179C93.3326 30.284 93.9928 30.0488 94.6454 29.9122C95.3131 29.7604 95.9353 29.6846 96.512 29.6846C97.4985 29.6846 98.3104 29.8439 98.9478 30.1626C99.5852 30.4661 100.063 30.9442 100.382 31.5968C100.701 32.2342 100.86 33.0537 100.86 34.0553V40.0651C100.86 40.4142 100.777 40.6798 100.61 40.8619C100.443 41.044 100.2 41.1351 99.8812 41.1351C99.5776 41.1351 99.3348 41.044 99.1527 40.8619C98.9858 40.6798 98.9023 40.4142 98.9023 40.0651V38.4489H99.1072C98.9858 39.0104 98.7581 39.496 98.4242 39.9058C98.0904 40.3155 97.673 40.6342 97.1722 40.8619C96.6866 41.0744 96.1326 41.1806 95.5104 41.1806Z" fill="white"/>
<path d="M109.105 45.2782C108.286 45.2782 107.489 45.1871 106.715 45.005C105.956 44.8229 105.266 44.5421 104.644 44.1627C104.446 44.0413 104.31 43.8971 104.234 43.7302C104.173 43.5784 104.158 43.4191 104.188 43.2521C104.234 43.0852 104.31 42.9334 104.416 42.7969C104.537 42.6754 104.674 42.592 104.826 42.5465C104.993 42.5161 105.16 42.554 105.326 42.6603C105.994 43.0397 106.632 43.2977 107.239 43.4343C107.846 43.5709 108.422 43.6391 108.969 43.6391C110.046 43.6391 110.851 43.3584 111.382 42.7969C111.928 42.2505 112.201 41.4462 112.201 40.3838V37.9253H112.406C112.194 38.7751 111.716 39.4505 110.972 39.9513C110.244 40.4521 109.394 40.7025 108.422 40.7025C107.421 40.7025 106.548 40.4749 105.805 40.0196C105.061 39.5491 104.484 38.9041 104.074 38.0846C103.665 37.2499 103.46 36.2862 103.46 35.1936C103.46 34.3589 103.574 33.6076 103.801 32.9399C104.044 32.2569 104.378 31.6802 104.803 31.2098C105.243 30.7241 105.767 30.3523 106.374 30.0943C106.981 29.8211 107.664 29.6846 108.422 29.6846C109.409 29.6846 110.266 29.935 110.995 30.4358C111.723 30.9366 112.194 31.6119 112.406 32.4618L112.156 32.7805V30.7773C112.156 30.4282 112.247 30.1702 112.429 30.0033C112.611 29.8212 112.869 29.7301 113.203 29.7301C113.522 29.7301 113.772 29.8212 113.954 30.0033C114.136 30.1702 114.227 30.4282 114.227 30.7773V40.1107C114.227 41.8256 113.787 43.1156 112.907 43.9806C112.042 44.8457 110.775 45.2782 109.105 45.2782ZM108.878 39.0635C109.561 39.0635 110.145 38.9117 110.631 38.6082C111.131 38.2895 111.511 37.8418 111.769 37.2651C112.042 36.6732 112.179 35.9827 112.179 35.1936C112.179 33.9946 111.883 33.0537 111.291 32.3708C110.699 31.6727 109.895 31.3236 108.878 31.3236C108.195 31.3236 107.603 31.483 107.102 31.8017C106.616 32.1052 106.237 32.5453 105.964 33.122C105.691 33.6987 105.554 34.3892 105.554 35.1936C105.554 36.3773 105.85 37.3182 106.442 38.0163C107.049 38.7144 107.861 39.0635 108.878 39.0635Z" fill="white"/>
<path d="M122.669 41.1806C121.47 41.1806 120.438 40.9529 119.573 40.4977C118.724 40.0272 118.063 39.367 117.593 38.5172C117.122 37.6521 116.887 36.6353 116.887 35.4667C116.887 34.3133 117.115 33.3041 117.57 32.4391C118.041 31.574 118.678 30.8987 119.482 30.413C120.302 29.9274 121.235 29.6846 122.282 29.6846C123.026 29.6846 123.694 29.8136 124.286 30.0716C124.893 30.3144 125.409 30.671 125.834 31.1415C126.259 31.6119 126.577 32.1886 126.79 32.8716C127.017 33.5393 127.131 34.2982 127.131 35.148C127.131 35.3908 127.055 35.5805 126.904 35.7171C126.767 35.8385 126.562 35.8992 126.289 35.8992H118.504V34.5789H125.765L125.378 34.8976C125.378 34.1084 125.257 33.4407 125.014 32.8943C124.786 32.3328 124.445 31.9079 123.99 31.6195C123.55 31.3312 122.996 31.187 122.328 31.187C121.599 31.187 120.977 31.3615 120.461 31.7106C119.945 32.0445 119.551 32.5225 119.277 33.1448C119.004 33.7518 118.868 34.4575 118.868 35.2618V35.3984C118.868 36.7643 119.194 37.7963 119.847 38.4944C120.499 39.1925 121.44 39.5415 122.669 39.5415C123.155 39.5415 123.648 39.4808 124.149 39.3594C124.665 39.238 125.158 39.018 125.629 38.6993C125.856 38.5627 126.061 38.502 126.243 38.5172C126.441 38.5172 126.6 38.5779 126.721 38.6993C126.843 38.8055 126.919 38.9421 126.949 39.109C126.979 39.2608 126.957 39.4277 126.881 39.6098C126.805 39.792 126.661 39.9513 126.448 40.0879C125.947 40.437 125.348 40.7101 124.65 40.9074C123.967 41.0895 123.307 41.1806 122.669 41.1806Z" fill="white"/>
<path d="M130.778 41.1351C130.459 41.1351 130.208 41.044 130.026 40.8619C129.844 40.6798 129.753 40.4142 129.753 40.0651V30.7773C129.753 30.4282 129.844 30.1702 130.026 30.0033C130.208 29.8212 130.459 29.7301 130.778 29.7301C131.096 29.7301 131.339 29.8212 131.506 30.0033C131.688 30.1702 131.779 30.4282 131.779 30.7773V32.7122L131.529 32.3025C131.817 31.4678 132.28 30.8228 132.917 30.3675C133.57 29.9122 134.344 29.6846 135.239 29.6846C136.18 29.6846 136.939 29.9122 137.516 30.3675C138.093 30.8076 138.48 31.483 138.677 32.3935H138.358C138.631 31.5588 139.117 30.8987 139.815 30.413C140.528 29.9274 141.355 29.6846 142.296 29.6846C143.131 29.6846 143.814 29.8515 144.345 30.1854C144.892 30.5041 145.301 30.9897 145.574 31.6423C145.848 32.2797 145.984 33.0992 145.984 34.1009V40.0651C145.984 40.4142 145.893 40.6798 145.711 40.8619C145.529 41.044 145.279 41.1351 144.96 41.1351C144.626 41.1351 144.368 41.044 144.186 40.8619C144.004 40.6798 143.913 40.4142 143.913 40.0651V34.1919C143.913 33.2206 143.746 32.5073 143.412 32.0521C143.078 31.5968 142.516 31.3691 141.727 31.3691C140.862 31.3691 140.172 31.6727 139.656 32.2797C139.155 32.8716 138.905 33.6911 138.905 34.7383V40.0651C138.905 40.4142 138.813 40.6798 138.631 40.8619C138.464 41.044 138.214 41.1351 137.88 41.1351C137.546 41.1351 137.288 41.044 137.106 40.8619C136.924 40.6798 136.833 40.4142 136.833 40.0651V34.1919C136.833 33.2206 136.666 32.5073 136.332 32.0521C135.998 31.5968 135.437 31.3691 134.648 31.3691C133.783 31.3691 133.092 31.6727 132.576 32.2797C132.075 32.8716 131.825 33.6911 131.825 34.7383V40.0651C131.825 40.7784 131.476 41.1351 130.778 41.1351Z" fill="white"/>
<path d="M154.437 41.1806C153.238 41.1806 152.206 40.9529 151.341 40.4977C150.491 40.0272 149.831 39.367 149.361 38.5172C148.89 37.6521 148.655 36.6353 148.655 35.4667C148.655 34.3133 148.883 33.3041 149.338 32.4391C149.809 31.574 150.446 30.8987 151.25 30.413C152.07 29.9274 153.003 29.6846 154.05 29.6846C154.794 29.6846 155.462 29.8136 156.054 30.0716C156.661 30.3144 157.177 30.671 157.602 31.1415C158.026 31.6119 158.345 32.1886 158.558 32.8716C158.785 33.5393 158.899 34.2982 158.899 35.148C158.899 35.3908 158.823 35.5805 158.671 35.7171C158.535 35.8385 158.33 35.8992 158.057 35.8992H150.271V34.5789H157.533L157.146 34.8976C157.146 34.1084 157.025 33.4407 156.782 32.8943C156.554 32.3328 156.213 31.9079 155.758 31.6195C155.318 31.3312 154.764 31.187 154.096 31.187C153.367 31.187 152.745 31.3615 152.229 31.7106C151.713 32.0445 151.319 32.5225 151.045 33.1448C150.772 33.7518 150.636 34.4575 150.636 35.2618V35.3984C150.636 36.7643 150.962 37.7963 151.615 38.4944C152.267 39.1925 153.208 39.5415 154.437 39.5415C154.923 39.5415 155.416 39.4808 155.917 39.3594C156.433 39.238 156.926 39.018 157.397 38.6993C157.624 38.5627 157.829 38.502 158.011 38.5172C158.209 38.5172 158.368 38.5779 158.489 38.6993C158.611 38.8055 158.687 38.9421 158.717 39.109C158.747 39.2608 158.725 39.4277 158.649 39.6098C158.573 39.792 158.429 39.9513 158.216 40.0879C157.715 40.437 157.116 40.7101 156.418 40.9074C155.735 41.0895 155.075 41.1806 154.437 41.1806Z" fill="white"/>
<path d="M162.5 41.1351C162.181 41.1351 161.931 41.044 161.749 40.8619C161.567 40.6798 161.476 40.4142 161.476 40.0651V30.7773C161.476 30.4282 161.567 30.1702 161.749 30.0033C161.931 29.8212 162.181 29.7301 162.5 29.7301C162.819 29.7301 163.062 29.8212 163.228 30.0033C163.411 30.1702 163.502 30.4282 163.502 30.7773V32.6439L163.251 32.3025C163.57 31.4374 164.086 30.7848 164.799 30.3447C165.528 29.9046 166.355 29.6846 167.281 29.6846C168.176 29.6846 168.912 29.8439 169.489 30.1626C170.065 30.4813 170.498 30.967 170.786 31.6195C171.075 32.2721 171.219 33.0992 171.219 34.1009V40.0651C171.219 40.4142 171.128 40.6798 170.946 40.8619C170.779 41.044 170.528 41.1351 170.194 41.1351C169.86 41.1351 169.602 41.044 169.42 40.8619C169.238 40.6798 169.147 40.4142 169.147 40.0651V34.2147C169.147 33.2282 168.957 32.5073 168.578 32.0521C168.199 31.5968 167.592 31.3691 166.757 31.3691C165.786 31.3691 165.004 31.6727 164.412 32.2797C163.835 32.8716 163.547 33.6759 163.547 34.6927V40.0651C163.547 40.7784 163.198 41.1351 162.5 41.1351Z" fill="white"/>
<path d="M179.101 41.1806C178.206 41.1806 177.455 41.0212 176.848 40.7025C176.256 40.3838 175.808 39.921 175.504 39.3139C175.216 38.7069 175.072 37.9632 175.072 37.083V31.483H173.615C173.342 31.483 173.129 31.4147 172.978 31.2781C172.826 31.1263 172.75 30.929 172.75 30.6862C172.75 30.4282 172.826 30.2309 172.978 30.0943C173.129 29.9577 173.342 29.8894 173.615 29.8894H175.072V27.4081C175.072 27.0591 175.163 26.8011 175.345 26.6341C175.527 26.452 175.785 26.361 176.119 26.361C176.453 26.361 176.703 26.452 176.87 26.6341C177.052 26.8011 177.144 27.0591 177.144 27.4081V29.8894H179.898C180.186 29.8894 180.406 29.9577 180.558 30.0943C180.71 30.2309 180.786 30.4282 180.786 30.6862C180.786 30.929 180.71 31.1263 180.558 31.2781C180.406 31.4147 180.186 31.483 179.898 31.483H177.144V36.9009C177.144 37.7356 177.318 38.3654 177.667 38.7903C178.016 39.2153 178.593 39.4277 179.397 39.4277C179.686 39.4277 179.928 39.405 180.126 39.3594C180.323 39.2987 180.497 39.2684 180.649 39.2684C180.786 39.2532 180.9 39.2987 180.991 39.405C181.097 39.5112 181.15 39.7085 181.15 39.9968C181.15 40.2093 181.112 40.4066 181.036 40.5887C180.976 40.7557 180.847 40.8695 180.649 40.9302C180.467 40.9909 180.224 41.044 179.921 41.0895C179.617 41.1502 179.344 41.1806 179.101 41.1806Z" fill="white"/>
<defs>
<filter id="filter0_b_348_3719" x="-3.91189" y="-0.770044" width="43.7623" height="47.5726" filterUnits="userSpaceOnUse" color-interpolation-filters="sRGB">
<feFlood flood-opacity="0" result="BackgroundImageFix"/>
<feGaussianBlur in="BackgroundImageFix" stdDeviation="2.41273"/>
<feComposite in2="SourceAlpha" operator="in" result="effect1_backgroundBlur_348_3719"/>
<feBlend mode="normal" in="SourceGraphic" in2="effect1_backgroundBlur_348_3719" result="shape"/>
</filter>
</defs>
</svg>
