<svg width="166" height="42" viewBox="0 0 166 42" fill="none" xmlns="http://www.w3.org/2000/svg">
<g filter="url(#filter0_b_348_4013)">
<path d="M17.9103 4.04949C16.7539 5.56791 11.9772 6.45669 9.73342 6.71127C10.4574 7.71441 12.0797 8.42871 14.6058 8.77121C16.6267 9.04521 18.4187 8.27515 19.062 7.85588C20.7354 6.49279 19.8653 5.04691 17.9103 4.04949Z" fill="#527BEF"/>
<path d="M24.1088 12.1061C27.7641 10.416 25.4845 7.33095 24.0194 6.01872C23.752 7.38848 23.0345 7.60133 22.848 7.76163C22.6987 7.88986 21.5689 8.48528 21.0227 8.76696C19.486 9.40132 17.7781 9.96618 16.7068 10.2127C15.9926 10.3771 15.2778 10.5507 13.7613 10.8829C11.5311 11.3714 8.25494 11.7286 5.18067 11.6964C6.33644 12.8145 7.92397 14.0482 12.3695 14.6058C15.9259 15.052 16.9196 14.4767 16.9719 14.1333C18.163 8.30418 23.2791 11.2705 24.1088 12.1061Z" fill="#527BEF"/>
<path d="M28.6849 19.6871C30.3704 18.6616 31.2494 17.7444 31.7036 17.0667C31.8441 18.8553 32.5691 22.4622 29.6512 24.4106C27.6203 25.7668 26.606 24.3713 26.3204 23.3626C25.9345 21.6315 26.9995 20.7126 28.6849 19.6871Z" fill="#527BEF"/>
<path d="M10.3036 24.4362C5.78612 24.8503 4.00391 24.8666 0.81806 24.7085C4.32724 27.7488 9.06942 28.2509 13.4712 28.4135C16.9927 28.5436 19.3685 27.9042 20.1162 27.5682C23.6669 25.7733 21.7058 22.6753 19.6045 22.9132C18.7704 23.0076 13.9678 24.1002 10.3036 24.4362Z" fill="#527BEF"/>
<path d="M28.406 27.0546C28.406 27.0546 31.172 25.0177 31.9162 24.2786C31.5041 27.1559 30.4896 28.9482 29.6053 29.6384C28.1514 30.8591 27.3205 31.4423 26.6483 31.3155C25.6906 28.9422 28.406 27.0546 28.406 27.0546Z" fill="#527BEF"/>
<path d="M26.5436 32.8802C27.5475 31.9463 28.3732 31.2847 29.5129 31.0193C27.946 34.186 25.4112 35.6501 24.3397 35.9863C24.303 35.178 25.4568 33.8912 26.5436 32.8802Z" fill="#527BEF"/>
<path d="M13.7726 35.9359C12.0394 36.1421 9.31591 36.2645 9.31591 36.2645C9.77061 36.7029 11.4984 37.6464 14.772 37.9132C18.0456 38.18 19.4812 37.5816 19.8934 37.3305C22.3218 35.8513 21.5277 34.6078 20.0644 34.7749C20.0644 34.7749 16.253 35.6409 13.7726 35.9359Z" fill="#527BEF"/>
<path fill-rule="evenodd" clip-rule="evenodd" d="M19.1424 29.819C16.5439 30.6394 10.9742 31.129 10.9742 31.129C10.9742 31.129 10.5228 31.276 3.30448 31.1819C7.01053 33.5149 11.3405 33.8808 13.5346 34.0661C13.6624 34.0769 13.7829 34.0871 13.8957 34.097C15.5346 34.2413 18.317 34.1045 19.714 33.5779C23.9133 31.9949 21.824 28.9724 19.1424 29.819Z" fill="#527BEF"/>
<path d="M25.5996 13.93C26.7426 13.4861 28.9492 12.2115 28.6309 10.6637C28.8934 10.6813 31.2289 13.8731 29.8709 15.777C29.4144 16.4691 28.0301 18.0648 26.1453 18.9101C23.7893 19.9666 21.1995 20.5739 20.5754 20.7056C19.9513 20.8373 15.9678 21.2564 13.7623 21.3771C10.7469 21.5422 8.23769 21.1809 6.42319 20.7126C4.60869 20.2442 3.151 19.7557 1.43468 17.8195C6.231 17.9309 12.4114 17.181 15.3868 16.8025L17.6111 16.5706C18.0957 17.2102 19.3245 18.6445 21.1401 18.8353C23.4095 19.0739 25.6549 18.3569 25.5996 13.93Z" fill="#527BEF"/>
</g>
<path d="M44.2072 15.7348C43.9048 15.7348 43.6711 15.653 43.5062 15.4895C43.3413 15.3124 43.2588 15.0672 43.2588 14.7538V2.02183C43.2588 1.69484 43.3413 1.4496 43.5062 1.28611C43.6711 1.12262 43.9048 1.04087 44.2072 1.04087C44.5233 1.04087 44.7638 1.12262 44.9288 1.28611C45.0937 1.4496 45.1762 1.69484 45.1762 2.02183V14.7538C45.1762 15.0672 45.0937 15.3124 44.9288 15.4895C44.7776 15.653 44.5371 15.7348 44.2072 15.7348Z" fill="white"/>
<path d="M55.3553 15.7756C53.8022 15.7756 52.4827 15.4827 51.3968 14.8969C50.3247 14.2974 49.5069 13.4459 48.9434 12.3423C48.3936 11.2387 48.1187 9.92396 48.1187 8.39803C48.1187 7.25358 48.2767 6.23176 48.5929 5.33255C48.909 4.41972 49.3694 3.64313 49.9742 3.00278C50.5927 2.34881 51.335 1.85152 52.2009 1.51091C53.0806 1.1703 54.0702 1 55.1698 1C56.022 1 56.8466 1.11581 57.6438 1.34742C58.441 1.56541 59.1695 1.92646 59.8293 2.43056C59.9942 2.55318 60.0973 2.69623 60.1385 2.85973C60.1935 3.02322 60.2004 3.18671 60.1591 3.3502C60.1179 3.5137 60.0354 3.65675 59.9117 3.77937C59.8018 3.90199 59.6575 3.97692 59.4788 4.00417C59.3138 4.0178 59.1352 3.9633 58.9427 3.84068C58.3792 3.43195 57.7882 3.13903 57.1696 2.96191C56.5649 2.78479 55.8982 2.69623 55.1698 2.69623C54.0839 2.69623 53.163 2.92104 52.4071 3.37064C51.6511 3.80662 51.0807 4.45378 50.6958 5.31211C50.3247 6.15682 50.1392 7.18546 50.1392 8.39803C50.1392 10.2646 50.579 11.6815 51.4587 12.6488C52.3521 13.6162 53.6716 14.0998 55.4172 14.0998C56.0632 14.0998 56.6886 14.0385 57.2933 13.9159C57.9119 13.7933 58.5029 13.623 59.0664 13.405L58.6541 14.4268V9.5016H55.8501C55.6027 9.5016 55.4034 9.43348 55.2522 9.29724C55.1148 9.16099 55.0461 8.97707 55.0461 8.74545C55.0461 8.51384 55.1148 8.33672 55.2522 8.2141C55.4034 8.09148 55.6027 8.03017 55.8501 8.03017H59.4994C59.7468 8.03017 59.9392 8.09829 60.0767 8.23454C60.2279 8.37078 60.3035 8.56834 60.3035 8.8272V14.0794C60.3035 14.2974 60.2622 14.4881 60.1798 14.6516C60.0973 14.8015 59.9598 14.9105 59.7674 14.9786C59.1901 15.2102 58.5029 15.401 57.7057 15.5508C56.9085 15.7007 56.125 15.7756 55.3553 15.7756Z" fill="white"/>
<path d="M66.623 15.7756C65.9357 15.7756 65.3103 15.6394 64.7468 15.3669C64.197 15.0944 63.7641 14.7265 63.4479 14.2633C63.1455 13.8001 62.9943 13.2824 62.9943 12.7101C62.9943 11.9744 63.1799 11.3954 63.551 10.973C63.9221 10.5507 64.5475 10.2509 65.4272 10.0738C66.3068 9.88309 67.4889 9.78772 68.9733 9.78772H69.9424V10.973H69.0146C67.9562 10.973 67.1178 11.0207 66.4993 11.1161C65.8945 11.2115 65.4684 11.3818 65.221 11.627C64.9736 11.8586 64.8499 12.1856 64.8499 12.608C64.8499 13.1393 65.0355 13.5753 65.4066 13.9159C65.7914 14.2565 66.3137 14.4268 66.9735 14.4268C67.4958 14.4268 67.9562 14.3042 68.3548 14.059C68.7534 13.8001 69.0696 13.4595 69.3032 13.0371C69.5369 12.6011 69.6537 12.1039 69.6537 11.5453V9.19506C69.6537 8.39122 69.4888 7.81218 69.1589 7.45795C68.829 7.09009 68.2724 6.90616 67.4889 6.90616C67.0353 6.90616 66.568 6.96747 66.0869 7.09009C65.6059 7.21271 65.1042 7.40345 64.5819 7.66231C64.3757 7.75769 64.197 7.79175 64.0458 7.7645C63.8946 7.72362 63.7709 7.64188 63.6747 7.51926C63.5922 7.38302 63.5441 7.23996 63.5304 7.09009C63.5304 6.9266 63.5648 6.76992 63.6335 6.62005C63.7159 6.47018 63.8534 6.36119 64.0458 6.29307C64.6506 5.99333 65.2485 5.78215 65.8395 5.65953C66.4443 5.52329 67.0078 5.45517 67.5301 5.45517C68.4236 5.45517 69.1589 5.59822 69.7362 5.88433C70.3135 6.15682 70.7464 6.58599 71.0351 7.17184C71.3237 7.74406 71.468 8.47978 71.468 9.37899V14.7742C71.468 15.0876 71.3924 15.326 71.2412 15.4895C71.0901 15.653 70.8701 15.7348 70.5815 15.7348C70.3066 15.7348 70.0867 15.653 69.9217 15.4895C69.7706 15.326 69.695 15.0876 69.695 14.7742V13.3232H69.8805C69.7706 13.8273 69.5644 14.2633 69.262 14.6312C68.9596 14.999 68.5816 15.2851 68.128 15.4895C67.6882 15.6803 67.1865 15.7756 66.623 15.7756Z" fill="white"/>
<path d="M75.3895 15.7348C75.1009 15.7348 74.8741 15.653 74.7091 15.4895C74.5442 15.326 74.4617 15.0876 74.4617 14.7742V6.43612C74.4617 6.12276 74.5442 5.89115 74.7091 5.74128C74.8741 5.57779 75.1009 5.49604 75.3895 5.49604C75.6781 5.49604 75.8981 5.57779 76.0493 5.74128C76.2142 5.89115 76.2967 6.12276 76.2967 6.43612V8.17323L76.0699 7.80537C76.331 7.05603 76.7502 6.47699 77.3275 6.06826C77.9186 5.65953 78.6195 5.45517 79.4305 5.45517C80.2827 5.45517 80.9699 5.65953 81.4922 6.06826C82.0145 6.46337 82.365 7.06966 82.5437 7.88712H82.2551C82.5025 7.13778 82.9423 6.54512 83.5746 6.10914C84.2206 5.67316 84.9697 5.45517 85.8218 5.45517C86.5778 5.45517 87.1963 5.60504 87.6774 5.90477C88.1722 6.19088 88.5433 6.62686 88.7907 7.21271C89.0381 7.78493 89.1618 8.52065 89.1618 9.41986V14.7742C89.1618 15.0876 89.0794 15.326 88.9144 15.4895C88.7495 15.653 88.5227 15.7348 88.2341 15.7348C87.9317 15.7348 87.698 15.653 87.5331 15.4895C87.3681 15.326 87.2857 15.0876 87.2857 14.7742V9.5016C87.2857 8.62965 87.1345 7.9893 86.8321 7.58057C86.5297 7.17184 86.0211 6.96747 85.3064 6.96747C84.523 6.96747 83.8976 7.23996 83.4302 7.78493C82.9767 8.31628 82.7499 9.052 82.7499 9.99208V14.7742C82.7499 15.0876 82.6674 15.326 82.5025 15.4895C82.3513 15.653 82.1245 15.7348 81.8221 15.7348C81.5197 15.7348 81.286 15.653 81.1211 15.4895C80.9562 15.326 80.8737 15.0876 80.8737 14.7742V9.5016C80.8737 8.62965 80.7225 7.9893 80.4201 7.58057C80.1177 7.17184 79.6092 6.96747 78.8944 6.96747C78.111 6.96747 77.4856 7.23996 77.0183 7.78493C76.5647 8.31628 76.3379 9.052 76.3379 9.99208V14.7742C76.3379 15.4146 76.0218 15.7348 75.3895 15.7348Z" fill="white"/>
<path d="M93.1065 15.6939C92.8179 15.6939 92.5911 15.6053 92.4261 15.4282C92.2612 15.2511 92.1787 15.0058 92.1787 14.6925V6.5383C92.1787 6.21132 92.2612 5.96608 92.4261 5.80259C92.5911 5.62547 92.8179 5.53691 93.1065 5.53691C93.4089 5.53691 93.6426 5.62547 93.8075 5.80259C93.9724 5.96608 94.0549 6.21132 94.0549 6.5383V14.6925C94.0549 15.0058 93.9724 15.2511 93.8075 15.4282C93.6563 15.6053 93.4226 15.6939 93.1065 15.6939ZM93.1065 3.32977C92.7354 3.32977 92.4399 3.2344 92.22 3.04366C92.0138 2.83929 91.9107 2.57361 91.9107 2.24663C91.9107 1.8924 92.0138 1.62672 92.22 1.4496C92.4399 1.25886 92.7354 1.16349 93.1065 1.16349C93.5051 1.16349 93.8006 1.25886 93.993 1.4496C94.1992 1.62672 94.3023 1.8924 94.3023 2.24663C94.3023 2.57361 94.1992 2.83929 93.993 3.04366C93.8006 3.2344 93.5051 3.32977 93.1065 3.32977Z" fill="white"/>
<path d="M97.9991 15.7348C97.7104 15.7348 97.4836 15.653 97.3187 15.4895C97.1538 15.326 97.0713 15.0876 97.0713 14.7742V6.43612C97.0713 6.12276 97.1538 5.89115 97.3187 5.74128C97.4836 5.57779 97.7104 5.49604 97.9991 5.49604C98.2877 5.49604 98.5076 5.57779 98.6588 5.74128C98.8238 5.89115 98.9062 6.12276 98.9062 6.43612V8.11192L98.6794 7.80537C98.9681 7.02878 99.4354 6.44293 100.081 6.04783C100.741 5.65272 101.49 5.45517 102.329 5.45517C103.14 5.45517 103.806 5.59822 104.329 5.88433C104.851 6.17045 105.243 6.60643 105.504 7.19227C105.765 7.77812 105.895 8.52065 105.895 9.41986V14.7742C105.895 15.0876 105.813 15.326 105.648 15.4895C105.497 15.653 105.27 15.7348 104.968 15.7348C104.665 15.7348 104.432 15.653 104.267 15.4895C104.102 15.326 104.019 15.0876 104.019 14.7742V9.52204C104.019 8.63646 103.848 7.9893 103.504 7.58057C103.16 7.17184 102.61 6.96747 101.855 6.96747C100.975 6.96747 100.267 7.23996 99.7309 7.78493C99.2086 8.31628 98.9475 9.03838 98.9475 9.95121V14.7742C98.9475 15.4146 98.6313 15.7348 97.9991 15.7348Z" fill="white"/>
<path d="M113.385 19.4542C112.643 19.4542 111.921 19.3725 111.22 19.209C110.533 19.0455 109.908 18.7934 109.344 18.4528C109.165 18.3438 109.042 18.2144 108.973 18.0645C108.918 17.9283 108.904 17.7852 108.932 17.6353C108.973 17.4855 109.042 17.3492 109.138 17.2266C109.248 17.1176 109.372 17.0427 109.509 17.0018C109.66 16.9746 109.811 17.0086 109.963 17.104C110.567 17.4446 111.145 17.6762 111.694 17.7988C112.244 17.9215 112.767 17.9828 113.261 17.9828C114.237 17.9828 114.966 17.7307 115.447 17.2266C115.942 16.7361 116.189 16.0141 116.189 15.0603V12.8532H116.375C116.182 13.6162 115.749 14.2224 115.076 14.6721C114.416 15.1217 113.646 15.3465 112.767 15.3465C111.859 15.3465 111.069 15.1421 110.396 14.7334C109.722 14.311 109.2 13.732 108.829 12.9963C108.458 12.2469 108.272 11.3818 108.272 10.4008C108.272 9.65147 108.375 8.97707 108.581 8.37759C108.801 7.7645 109.104 7.24677 109.488 6.82442C109.887 6.38844 110.361 6.05464 110.911 5.82303C111.461 5.57779 112.079 5.45517 112.767 5.45517C113.66 5.45517 114.437 5.67997 115.096 6.12957C115.756 6.57918 116.182 7.18546 116.375 7.94843L116.148 8.23454V6.43612C116.148 6.12276 116.23 5.89115 116.395 5.74128C116.56 5.57779 116.794 5.49604 117.096 5.49604C117.385 5.49604 117.612 5.57779 117.777 5.74128C117.941 5.89115 118.024 6.12276 118.024 6.43612V14.8151C118.024 16.3547 117.625 17.5127 116.828 18.2893C116.045 19.0659 114.897 19.4542 113.385 19.4542ZM113.179 13.875C113.797 13.875 114.327 13.7388 114.766 13.4663C115.22 13.1802 115.564 12.7783 115.797 12.2605C116.045 11.7292 116.168 11.1093 116.168 10.4008C116.168 9.32449 115.9 8.47978 115.364 7.86668C114.828 7.23996 114.1 6.9266 113.179 6.9266C112.56 6.9266 112.024 7.06965 111.571 7.35577C111.131 7.62825 110.787 8.02336 110.54 8.54109C110.292 9.05881 110.169 9.67872 110.169 10.4008C110.169 11.4635 110.437 12.3082 110.973 12.9349C111.523 13.5617 112.258 13.875 113.179 13.875Z" fill="white"/>
<path d="M44.1659 37.2805C43.8911 37.2805 43.678 37.1988 43.5268 37.0353C43.3756 36.8718 43.3 36.6538 43.3 36.3813V23.4859C43.3 23.1998 43.3756 22.9818 43.5268 22.8319C43.6918 22.6684 43.9117 22.5867 44.1866 22.5867C44.434 22.5867 44.6264 22.6344 44.7638 22.7297C44.915 22.8251 45.0525 22.9886 45.1762 23.2202L50.7016 33.4998H50.0625L55.5879 23.2202C55.7116 22.9886 55.8422 22.8251 55.9796 22.7297C56.1171 22.6344 56.3095 22.5867 56.5569 22.5867C56.8318 22.5867 57.0449 22.6684 57.1961 22.8319C57.3473 22.9818 57.4229 23.1998 57.4229 23.4859V36.3813C57.4229 36.6538 57.3473 36.8718 57.1961 37.0353C57.0586 37.1988 56.8456 37.2805 56.5569 37.2805C56.2683 37.2805 56.0484 37.1988 55.8972 37.0353C55.7597 36.8718 55.691 36.6538 55.691 36.3813V25.366H56.1446L51.1964 34.5421C51.0865 34.7192 50.9696 34.8554 50.8459 34.9508C50.736 35.0325 50.5779 35.0734 50.3717 35.0734C50.1793 35.0734 50.0144 35.0257 49.8769 34.9303C49.7532 34.835 49.6433 34.7055 49.5471 34.5421L44.5371 25.3456H45.0319V36.3813C45.0319 36.6538 44.9563 36.8718 44.8051 37.0353C44.6676 37.1988 44.4546 37.2805 44.1659 37.2805Z" fill="white"/>
<path d="M63.9049 37.3214C63.2176 37.3214 62.5923 37.1852 62.0287 36.9127C61.4789 36.6402 61.046 36.2723 60.7298 35.8091C60.4274 35.3459 60.2762 34.8282 60.2762 34.2559C60.2762 33.5202 60.4618 32.9412 60.8329 32.5188C61.204 32.0965 61.8294 31.7967 62.7091 31.6196C63.5888 31.4289 64.7708 31.3335 66.2553 31.3335H67.2243V32.5188H66.2965C65.2381 32.5188 64.3997 32.5665 63.7812 32.6619C63.1764 32.7573 62.7503 32.9276 62.5029 33.1728C62.2555 33.4044 62.1318 33.7314 62.1318 34.1538C62.1318 34.6851 62.3174 35.1211 62.6885 35.4617C63.0733 35.8023 63.5956 35.9726 64.2554 35.9726C64.7777 35.9726 65.2381 35.85 65.6367 35.6048C66.0353 35.3459 66.3515 35.0053 66.5851 34.5829C66.8188 34.1469 66.9356 33.6497 66.9356 33.0911V30.7409C66.9356 29.937 66.7707 29.358 66.4408 29.0037C66.1109 28.6359 65.5543 28.452 64.7708 28.452C64.3172 28.452 63.8499 28.5133 63.3688 28.6359C62.8878 28.7585 62.3861 28.9492 61.8638 29.2081C61.6576 29.3035 61.4789 29.3375 61.3277 29.3103C61.1765 29.2694 61.0528 29.1877 60.9566 29.0651C60.8741 28.9288 60.826 28.7858 60.8123 28.6359C60.8123 28.4724 60.8467 28.3157 60.9154 28.1658C60.9979 28.016 61.1353 27.907 61.3277 27.8389C61.9325 27.5391 62.5304 27.3279 63.1214 27.2053C63.7262 27.0691 64.2897 27.001 64.812 27.001C65.7055 27.001 66.4408 27.144 67.0181 27.4301C67.5954 27.7026 68.0283 28.1318 68.317 28.7176C68.6056 29.2899 68.7499 30.0256 68.7499 30.9248V36.32C68.7499 36.6334 68.6743 36.8718 68.5232 37.0353C68.372 37.1988 68.152 37.2805 67.8634 37.2805C67.5885 37.2805 67.3686 37.1988 67.2036 37.0353C67.0525 36.8718 66.9769 36.6334 66.9769 36.32V34.869H67.1624C67.0525 35.3731 66.8463 35.8091 66.5439 36.177C66.2415 36.5448 65.8635 36.8309 65.4099 37.0353C64.9701 37.226 64.4684 37.3214 63.9049 37.3214Z" fill="white"/>
<path d="M72.6302 37.2805C72.3415 37.2805 72.1147 37.1988 71.9498 37.0353C71.7849 36.8718 71.7024 36.6334 71.7024 36.32V27.9819C71.7024 27.6686 71.7849 27.4369 71.9498 27.2871C72.1147 27.1236 72.3415 27.0418 72.6302 27.0418C72.9188 27.0418 73.1387 27.1236 73.2899 27.2871C73.4549 27.4369 73.5373 27.6686 73.5373 27.9819V29.6577L73.3105 29.3512C73.5992 28.5746 74.0665 27.9887 74.7125 27.5936C75.3723 27.1985 76.1214 27.001 76.9598 27.001C77.7707 27.001 78.4374 27.144 78.9597 27.4301C79.482 27.7162 79.8737 28.1522 80.1349 28.7381C80.396 29.3239 80.5266 30.0664 80.5266 30.9657V36.32C80.5266 36.6334 80.4441 36.8718 80.2792 37.0353C80.128 37.1988 79.9012 37.2805 79.5988 37.2805C79.2964 37.2805 79.0628 37.1988 78.8978 37.0353C78.7329 36.8718 78.6504 36.6334 78.6504 36.32V31.0678C78.6504 30.1823 78.4786 29.5351 78.135 29.1264C77.7914 28.7176 77.2416 28.5133 76.4856 28.5133C75.6059 28.5133 74.8981 28.7858 74.362 29.3307C73.8397 29.8621 73.5786 30.5842 73.5786 31.497V36.32C73.5786 36.9604 73.2624 37.2805 72.6302 37.2805Z" fill="white"/>
<path d="M86.6966 37.3214C86.0094 37.3214 85.384 37.1852 84.8205 36.9127C84.2707 36.6402 83.8377 36.2723 83.5216 35.8091C83.2192 35.3459 83.068 34.8282 83.068 34.2559C83.068 33.5202 83.2535 32.9412 83.6247 32.5188C83.9958 32.0965 84.6212 31.7967 85.5008 31.6196C86.3805 31.4289 87.5626 31.3335 89.047 31.3335H90.016V32.5188H89.0882C88.0299 32.5188 87.1914 32.5665 86.5729 32.6619C85.9682 32.7573 85.5421 32.9276 85.2947 33.1728C85.0472 33.4044 84.9235 33.7314 84.9235 34.1538C84.9235 34.6851 85.1091 35.1211 85.4802 35.4617C85.8651 35.8023 86.3874 35.9726 87.0471 35.9726C87.5694 35.9726 88.0299 35.85 88.4285 35.6048C88.8271 35.3459 89.1432 35.0053 89.3769 34.5829C89.6105 34.1469 89.7274 33.6497 89.7274 33.0911V30.7409C89.7274 29.937 89.5624 29.358 89.2326 29.0037C88.9027 28.6359 88.346 28.452 87.5626 28.452C87.109 28.452 86.6416 28.5133 86.1606 28.6359C85.6795 28.7585 85.1778 28.9492 84.6555 29.2081C84.4493 29.3035 84.2707 29.3375 84.1195 29.3103C83.9683 29.2694 83.8446 29.1877 83.7484 29.0651C83.6659 28.9288 83.6178 28.7858 83.604 28.6359C83.604 28.4724 83.6384 28.3157 83.7071 28.1658C83.7896 28.016 83.927 27.907 84.1195 27.8389C84.7242 27.5391 85.3221 27.3279 85.9132 27.2053C86.5179 27.0691 87.0815 27.001 87.6038 27.001C88.4972 27.001 89.2326 27.144 89.8098 27.4301C90.3871 27.7026 90.8201 28.1318 91.1087 28.7176C91.3974 29.2899 91.5417 30.0256 91.5417 30.9248V36.32C91.5417 36.6334 91.4661 36.8718 91.3149 37.0353C91.1637 37.1988 90.9438 37.2805 90.6551 37.2805C90.3802 37.2805 90.1603 37.1988 89.9954 37.0353C89.8442 36.8718 89.7686 36.6334 89.7686 36.32V34.869H89.9542C89.8442 35.3731 89.638 35.8091 89.3356 36.177C89.0333 36.5448 88.6553 36.8309 88.2017 37.0353C87.7619 37.226 87.2602 37.3214 86.6966 37.3214Z" fill="white"/>
<path d="M99.0093 41C98.2671 41 97.5455 40.9183 96.8445 40.7548C96.1573 40.5913 95.5319 40.3392 94.9683 39.9986C94.7897 39.8896 94.666 39.7602 94.5972 39.6103C94.5422 39.4741 94.5285 39.331 94.556 39.1811C94.5972 39.0313 94.6659 38.895 94.7622 38.7724C94.8721 38.6634 94.9958 38.5885 95.1333 38.5476C95.2845 38.5204 95.4357 38.5544 95.5869 38.6498C96.1916 38.9904 96.7689 39.222 97.3187 39.3446C97.8685 39.4673 98.3908 39.5286 98.8856 39.5286C99.8615 39.5286 100.59 39.2765 101.071 38.7724C101.566 38.2819 101.813 37.5598 101.813 36.6061V34.399H101.999C101.806 35.162 101.373 35.7682 100.7 36.2178C100.04 36.6675 99.2705 36.8923 98.3908 36.8923C97.4836 36.8923 96.6933 36.6879 96.0198 36.2792C95.3463 35.8568 94.824 35.2778 94.4529 34.5421C94.0818 33.7927 93.8962 32.9276 93.8962 31.9466C93.8962 31.1973 93.9993 30.5229 94.2055 29.9234C94.4254 29.3103 94.7278 28.7926 95.1127 28.3702C95.5113 27.9342 95.9855 27.6004 96.5353 27.3688C97.085 27.1236 97.7036 27.001 98.3908 27.001C99.2842 27.001 100.061 27.2258 100.721 27.6754C101.38 28.125 101.806 28.7313 101.999 29.4942L101.772 29.7803V27.9819C101.772 27.6686 101.855 27.4369 102.019 27.2871C102.184 27.1236 102.418 27.0418 102.72 27.0418C103.009 27.0418 103.236 27.1236 103.401 27.2871C103.566 27.4369 103.648 27.6686 103.648 27.9819V36.3609C103.648 37.9005 103.25 39.0585 102.452 39.8351C101.669 40.6117 100.521 41 99.0093 41ZM98.8031 35.4208C99.4217 35.4208 99.9508 35.2846 100.391 35.0121C100.844 34.726 101.188 34.3241 101.422 33.8063C101.669 33.275 101.793 32.6551 101.793 31.9466C101.793 30.8703 101.525 30.0256 100.989 29.4125C100.453 28.7858 99.7241 28.4724 98.8031 28.4724C98.1846 28.4724 97.6486 28.6155 97.195 28.9016C96.7552 29.174 96.4115 29.5692 96.1641 30.0869C95.9167 30.6046 95.793 31.2245 95.793 31.9466C95.793 33.0093 96.0611 33.854 96.5971 34.4807C97.1469 35.1075 97.8822 35.4208 98.8031 35.4208Z" fill="white"/>
<path d="M111.294 37.3214C110.208 37.3214 109.273 37.1171 108.49 36.7083C107.72 36.286 107.122 35.6933 106.696 34.9303C106.27 34.1538 106.057 33.2409 106.057 32.1918C106.057 31.1564 106.263 30.2504 106.676 29.4738C107.102 28.6972 107.679 28.0909 108.408 27.6549C109.15 27.219 109.995 27.001 110.943 27.001C111.617 27.001 112.222 27.1168 112.758 27.3484C113.308 27.5664 113.775 27.8865 114.16 28.3089C114.545 28.7313 114.833 29.249 115.026 29.8621C115.232 30.4616 115.335 31.1428 115.335 31.9057C115.335 32.1237 115.266 32.294 115.129 32.4167C115.005 32.5256 114.82 32.5801 114.572 32.5801H107.521V31.3948H114.098L113.747 31.6809C113.747 30.9725 113.637 30.373 113.418 29.8825C113.211 29.3784 112.902 28.9969 112.49 28.7381C112.091 28.4792 111.59 28.3498 110.985 28.3498C110.325 28.3498 109.761 28.5065 109.294 28.8198C108.827 29.1196 108.469 29.5487 108.222 30.1073C107.975 30.6523 107.851 31.2858 107.851 32.0079V32.1305C107.851 33.3567 108.146 34.2832 108.737 34.9099C109.328 35.5366 110.181 35.85 111.294 35.85C111.734 35.85 112.181 35.7955 112.634 35.6865C113.101 35.5775 113.548 35.3799 113.974 35.0938C114.18 34.9712 114.366 34.9167 114.531 34.9303C114.71 34.9303 114.854 34.9848 114.964 35.0938C115.074 35.1892 115.143 35.3118 115.17 35.4617C115.198 35.5979 115.177 35.7478 115.108 35.9113C115.039 36.0748 114.909 36.2178 114.716 36.3405C114.263 36.6538 113.72 36.8991 113.088 37.0762C112.469 37.2397 111.871 37.3214 111.294 37.3214Z" fill="white"/>
<path d="M118.637 37.2805C118.349 37.2805 118.122 37.1988 117.957 37.0353C117.792 36.8718 117.71 36.6334 117.71 36.32V27.9819C117.71 27.6686 117.792 27.4369 117.957 27.2871C118.122 27.1236 118.349 27.0418 118.637 27.0418C118.926 27.0418 119.146 27.1236 119.297 27.2871C119.462 27.4369 119.545 27.6686 119.545 27.9819V29.719L119.318 29.3512C119.579 28.6018 119.998 28.0228 120.575 27.6141C121.166 27.2053 121.867 27.001 122.678 27.001C123.531 27.001 124.218 27.2053 124.74 27.6141C125.262 28.0092 125.613 28.6154 125.792 29.4329H125.503C125.75 28.6836 126.19 28.0909 126.822 27.6549C127.469 27.219 128.218 27.001 129.07 27.001C129.826 27.001 130.444 27.1508 130.925 27.4506C131.42 27.7367 131.791 28.1727 132.039 28.7585C132.286 29.3307 132.41 30.0664 132.41 30.9657V36.32C132.41 36.6334 132.327 36.8718 132.162 37.0353C131.997 37.1988 131.771 37.2805 131.482 37.2805C131.18 37.2805 130.946 37.1988 130.781 37.0353C130.616 36.8718 130.534 36.6334 130.534 36.32V31.0474C130.534 30.1754 130.382 29.5351 130.08 29.1264C129.778 28.7176 129.269 28.5133 128.554 28.5133C127.771 28.5133 127.146 28.7858 126.678 29.3307C126.225 29.8621 125.998 30.5978 125.998 31.5379V36.32C125.998 36.6334 125.915 36.8718 125.75 37.0353C125.599 37.1988 125.372 37.2805 125.07 37.2805C124.768 37.2805 124.534 37.1988 124.369 37.0353C124.204 36.8718 124.122 36.6334 124.122 36.32V31.0474C124.122 30.1754 123.97 29.5351 123.668 29.1264C123.366 28.7176 122.857 28.5133 122.142 28.5133C121.359 28.5133 120.734 28.7858 120.266 29.3307C119.813 29.8621 119.586 30.5978 119.586 31.5379V36.32C119.586 36.9604 119.27 37.2805 118.637 37.2805Z" fill="white"/>
<path d="M140.066 37.3214C138.98 37.3214 138.045 37.1171 137.262 36.7083C136.492 36.286 135.894 35.6933 135.468 34.9303C135.042 34.1538 134.829 33.2409 134.829 32.1918C134.829 31.1564 135.035 30.2504 135.447 29.4738C135.873 28.6972 136.451 28.0909 137.179 27.6549C137.921 27.219 138.767 27.001 139.715 27.001C140.389 27.001 140.993 27.1168 141.529 27.3484C142.079 27.5664 142.546 27.8865 142.931 28.3089C143.316 28.7313 143.605 29.249 143.797 29.8621C144.003 30.4616 144.107 31.1428 144.107 31.9057C144.107 32.1237 144.038 32.294 143.9 32.4167C143.777 32.5256 143.591 32.5801 143.344 32.5801H136.293V31.3948H142.869L142.519 31.6809C142.519 30.9725 142.409 30.373 142.189 29.8825C141.983 29.3784 141.674 28.9969 141.261 28.7381C140.863 28.4792 140.361 28.3498 139.756 28.3498C139.097 28.3498 138.533 28.5065 138.066 28.8198C137.598 29.1196 137.241 29.5487 136.994 30.1073C136.746 30.6523 136.622 31.2858 136.622 32.0079V32.1305C136.622 33.3567 136.918 34.2832 137.509 34.9099C138.1 35.5366 138.952 35.85 140.066 35.85C140.505 35.85 140.952 35.7955 141.406 35.6865C141.873 35.5775 142.32 35.3799 142.746 35.0938C142.952 34.9712 143.138 34.9167 143.302 34.9303C143.481 34.9303 143.625 34.9848 143.735 35.0938C143.845 35.1892 143.914 35.3118 143.942 35.4617C143.969 35.5979 143.948 35.7478 143.88 35.9113C143.811 36.0748 143.68 36.2178 143.488 36.3405C143.034 36.6538 142.492 36.8991 141.859 37.0762C141.241 37.2397 140.643 37.3214 140.066 37.3214Z" fill="white"/>
<path d="M147.368 37.2805C147.079 37.2805 146.852 37.1988 146.687 37.0353C146.522 36.8718 146.44 36.6334 146.44 36.32V27.9819C146.44 27.6686 146.522 27.4369 146.687 27.2871C146.852 27.1236 147.079 27.0418 147.368 27.0418C147.656 27.0418 147.876 27.1236 148.028 27.2871C148.192 27.4369 148.275 27.6686 148.275 27.9819V29.6577L148.048 29.3512C148.337 28.5746 148.804 27.9887 149.45 27.5936C150.11 27.1985 150.859 27.001 151.697 27.001C152.508 27.001 153.175 27.144 153.697 27.4301C154.22 27.7162 154.611 28.1522 154.872 28.7381C155.134 29.3239 155.264 30.0664 155.264 30.9657V36.32C155.264 36.6334 155.182 36.8718 155.017 37.0353C154.866 37.1988 154.639 37.2805 154.336 37.2805C154.034 37.2805 153.8 37.1988 153.635 37.0353C153.47 36.8718 153.388 36.6334 153.388 36.32V31.0678C153.388 30.1823 153.216 29.5351 152.873 29.1264C152.529 28.7176 151.979 28.5133 151.223 28.5133C150.344 28.5133 149.636 28.7858 149.1 29.3307C148.577 29.8621 148.316 30.5842 148.316 31.497V36.32C148.316 36.9604 148 37.2805 147.368 37.2805Z" fill="white"/>
<path d="M162.403 37.3214C161.592 37.3214 160.912 37.1784 160.362 36.8923C159.826 36.6061 159.421 36.1906 159.146 35.6456C158.885 35.1007 158.754 34.4331 158.754 33.6428V28.6154H157.434C157.187 28.6154 156.995 28.5541 156.857 28.4315C156.72 28.2953 156.651 28.1182 156.651 27.9002C156.651 27.6686 156.72 27.4914 156.857 27.3688C156.995 27.2462 157.187 27.1849 157.434 27.1849H158.754V24.9573C158.754 24.6439 158.836 24.4123 159.001 24.2625C159.166 24.099 159.4 24.0172 159.702 24.0172C160.005 24.0172 160.232 24.099 160.383 24.2625C160.548 24.4123 160.63 24.6439 160.63 24.9573V27.1849H163.125C163.386 27.1849 163.585 27.2462 163.723 27.3688C163.86 27.4914 163.929 27.6686 163.929 27.9002C163.929 28.1182 163.86 28.2953 163.723 28.4315C163.585 28.5541 163.386 28.6154 163.125 28.6154H160.63V33.4793C160.63 34.2287 160.788 34.7941 161.104 35.1756C161.42 35.5571 161.943 35.7478 162.671 35.7478C162.932 35.7478 163.152 35.7274 163.331 35.6865C163.51 35.632 163.668 35.6048 163.805 35.6048C163.929 35.5911 164.032 35.632 164.114 35.7274C164.211 35.8227 164.259 35.9999 164.259 36.2587C164.259 36.4495 164.224 36.6266 164.156 36.7901C164.101 36.9399 163.984 37.0421 163.805 37.0966C163.64 37.1511 163.42 37.1988 163.145 37.2397C162.871 37.2942 162.623 37.3214 162.403 37.3214Z" fill="white"/>
<defs>
<filter id="filter0_b_348_4013" x="-3.55884" y="-0.327636" width="39.852" height="42.6851" filterUnits="userSpaceOnUse" color-interpolation-filters="sRGB">
<feFlood flood-opacity="0" result="BackgroundImageFix"/>
<feGaussianBlur in="BackgroundImageFix" stdDeviation="2.1886"/>
<feComposite in2="SourceAlpha" operator="in" result="effect1_backgroundBlur_348_4013"/>
<feBlend mode="normal" in="SourceGraphic" in2="effect1_backgroundBlur_348_4013" result="shape"/>
</filter>
</defs>
</svg>
