<svg width="42" height="42" viewBox="0 0 42 42" fill="none" xmlns="http://www.w3.org/2000/svg">
<path d="M30 12H14C13.2506 12 12.594 12.4352 12.2516 13.0749C12.3638 13.1052 12.4729 13.1566 12.5735 13.23L22 20.1035L31.4265 13.23C31.5271 13.1566 31.6362 13.1052 31.7484 13.0749C31.406 12.4352 30.7494 12 30 12Z" fill="#070707"/>
<path d="M12 15.3548V26.5833C12 27.7292 12.9 28.6667 14 28.6667H30C31.1 28.6667 32 27.7292 32 26.5833V15.3548L22.5735 22.2284C22.2291 22.4794 21.7709 22.4794 21.4265 22.2284L12 15.3548Z" fill="#070707"/>
<rect opacity="0.5" x="1" y="1" width="40" height="40" rx="5" stroke="#C7C7C7"/>
</svg>
