<svg width="133" height="48" viewBox="0 0 133 48" fill="none" xmlns="http://www.w3.org/2000/svg">
<g clip-path="url(#clip0_508_2808)">
<path d="M91.5792 46.7555C90.8668 46.7647 90.1642 46.5963 89.5407 46.267C88.9432 45.9518 88.4479 45.4857 88.1091 44.9197C87.769 44.3321 87.5906 43.6716 87.5906 43.0001C87.5906 42.3286 87.769 41.6681 88.1091 41.0805C88.4481 40.5147 88.9434 40.0488 89.5407 39.7337C90.1642 39.4044 90.8668 39.2361 91.5792 39.2452C92.2871 39.2349 92.9852 39.4035 93.6029 39.7337C94.1939 40.0522 94.6837 40.5176 95.0203 41.0805C95.3603 41.6681 95.5387 42.3286 95.5387 43.0001C95.5387 43.6716 95.3603 44.3321 95.0203 44.9197C94.6839 45.4829 94.1941 45.9485 93.6029 46.267C92.9852 46.5973 92.2871 46.7658 91.5792 46.7555ZM91.5792 47.9978C92.5473 48.0107 93.5027 47.7872 94.355 47.3486C95.1625 46.935 95.835 46.3167 96.2985 45.5616C96.7584 44.7794 97 43.8973 97 43.0001C97 42.1029 96.7584 41.2208 96.2985 40.4386C95.8348 39.6836 95.1624 39.0653 94.355 38.6516C93.4952 38.2251 92.5406 38.0024 91.5718 38.0024C90.603 38.0024 89.6484 38.2251 88.7886 38.6516C87.9789 39.0678 87.3042 39.6882 86.838 40.4454C86.3736 41.2237 86.1293 42.1042 86.1293 43.0001C86.1293 43.896 86.3736 44.7765 86.838 45.5548C87.304 46.3121 87.9787 46.9326 88.7886 47.3486C89.6458 47.7883 90.6064 48.0118 91.5792 47.9978ZM81.702 38.1143V45.4014L75.5655 38.1143H74.3675V47.8859H75.8288V40.5993L81.9654 47.8859H83.1633V38.1143H81.702ZM69.1078 47.8859H70.5691V38.1143H69.1078V47.8859ZM62.2846 47.9978C63.034 48.0184 63.7799 47.8926 64.4766 47.628C65.0134 47.425 65.4758 47.0753 65.8059 46.6227C66.0954 46.2073 66.2481 45.7187 66.2441 45.2197C66.2736 44.6881 66.0937 44.1653 65.7399 43.7541C65.4115 43.3963 64.9983 43.1186 64.5348 42.9442C63.9296 42.7277 63.3096 42.5506 62.6793 42.4142C62.2026 42.3152 61.7319 42.1916 61.2692 42.0438C60.9468 41.941 60.6507 41.7746 60.4 41.5553C60.284 41.4509 60.1927 41.324 60.1323 41.1831C60.0718 41.0423 60.0435 40.8907 60.0492 40.7385C60.0472 40.5177 60.1029 40.2999 60.2113 40.1049C60.3197 39.9099 60.4773 39.7438 60.6699 39.6218C61.229 39.2965 61.8801 39.1452 62.5331 39.189C63.0179 39.1915 63.5 39.2598 63.9647 39.3917C64.4499 39.5258 64.9126 39.7255 65.3386 39.9848L65.8208 38.868C65.362 38.5718 64.8526 38.3546 64.3155 38.2262C63.7342 38.0774 63.1349 38.0021 62.5331 38.0024C61.7877 37.9806 61.0459 38.1091 60.356 38.3795C59.8278 38.587 59.3736 38.9359 59.0481 39.3844C58.761 39.8032 58.611 40.2942 58.6171 40.7947C58.5872 41.3327 58.7668 41.8623 59.1212 42.2813C59.4499 42.6437 59.8662 42.9241 60.334 43.0981C60.9421 43.3141 61.5645 43.4913 62.1972 43.6286C62.8107 43.7678 63.2856 43.8933 63.6217 44.0052C63.9372 44.1052 64.2263 44.2696 64.4689 44.4869C64.5829 44.5924 64.6724 44.7196 64.7316 44.8604C64.7908 45.0011 64.8184 45.1521 64.8125 45.3037C64.8156 45.5226 64.7593 45.7386 64.6492 45.9306C64.5391 46.1226 64.3789 46.2841 64.1841 46.3994C63.6069 46.7118 62.9463 46.855 62.2846 46.8112C61.6444 46.8118 61.009 46.7055 60.4071 46.4971C59.8573 46.3202 59.3486 46.0427 58.9096 45.6803L58.3691 46.7692C58.8593 47.1758 59.4345 47.4781 60.0564 47.6559C60.7749 47.8843 61.5274 47.9997 62.2846 47.9978ZM49.4711 44.3262L51.6773 39.5383L53.8835 44.3262H49.4711ZM55.5197 47.8859H57.0541L52.408 38.1143H50.9615L46.3297 47.8859H47.8344L48.9598 45.4434H54.3948L55.5197 47.8859ZM41.4059 47.9978C42.1586 48.0061 42.9057 47.8733 43.605 47.607C44.2572 47.3562 44.8398 46.9644 45.3071 46.4624L44.3571 45.5826C43.9914 45.9613 43.5458 46.2617 43.0497 46.4639C42.5536 46.666 42.0183 46.7655 41.479 46.7555C40.7598 46.7652 40.0501 46.5969 39.419 46.267C38.8182 45.9536 38.32 45.4873 37.9797 44.9197C37.6393 44.3322 37.4607 43.6717 37.4607 43.0001C37.4607 42.3286 37.6393 41.668 37.9797 41.0805C38.3202 40.5132 38.8183 40.0471 39.419 39.7337C40.0501 39.4038 40.7598 39.2355 41.479 39.2452C42.0172 39.233 42.552 39.33 43.0481 39.5298C43.5442 39.7295 43.9903 40.0274 44.3571 40.4039L45.3071 39.5241C44.8426 39.0238 44.2622 38.6342 43.6121 38.3864C42.9145 38.1242 42.1703 37.9938 41.4208 38.0024C40.4525 37.9894 39.4969 38.2129 38.6444 38.6516C37.8371 39.0655 37.1647 39.6837 36.701 40.4386C36.2414 41.2209 36 42.103 36 43.0001C36 43.8972 36.2414 44.7793 36.701 45.5616C37.1631 46.3153 37.8328 46.9334 38.6373 47.3486C39.4868 47.7877 40.4401 48.0113 41.4059 47.9978Z" fill="#F9B100"/>
<path d="M32.3753 13H32.3241L25 30H36L32.3753 13Z" fill="#F9B100"/>
<path d="M3.6759 13H3.62475L0 30H11L3.6759 13Z" fill="#F9B100"/>
<path d="M18 23.9803L6.70067 0H6.64493L4 12.655L17.9785 24L18 23.9803Z" fill="#F9B100"/>
<path d="M18 23.9803L29.2993 0H29.3551L32 12.655L18.0215 24L18 23.9803Z" fill="#F9B100"/>
<path d="M54.9908 30.958C50.9333 27.7031 48.0981 22.0938 48.0981 15.5012C48.0981 8.90349 50.9376 3.29033 55 0.0365598L54.987 0C45.2396 1.9457 39 8.88635 39 15.5012C39 22.1135 45.2348 29.0512 54.9758 31L54.9908 30.958Z" fill="#F9B100"/>
<path d="M56.0092 30.958C60.0666 27.7031 62.9019 22.0938 62.9019 15.5012C62.9019 8.90349 60.0624 3.29033 56 0.0365598L56.013 0C65.7604 1.9457 72 8.88635 72 15.5012C72 22.1135 65.7651 29.0512 56.0242 31L56.0092 30.958Z" fill="#F9B100"/>
<path d="M116.991 30.958C112.933 27.7031 110.098 22.0938 110.098 15.5012C110.098 8.90349 112.938 3.29033 117 0.0365598L116.987 0C107.24 1.9457 101 8.88635 101 15.5012C101 22.1135 107.235 29.0512 116.976 31L116.991 30.958Z" fill="#F9B100"/>
<path d="M117.009 30.958C121.067 27.7031 123.902 22.0938 123.902 15.5012C123.902 8.90349 121.062 3.29033 117 0.0365598L117.013 0C126.76 1.9457 133 8.88635 133 15.5012C133 22.1135 126.765 29.0512 117.024 31L117.009 30.958Z" fill="#F9B100"/>
<path d="M86.5406 17H86.46L80 30H93L86.5406 17Z" fill="#F9B100"/>
<path d="M82.4215 0H70.0354L70 0.057846L86.9579 16L87 15.9766L82.4215 0Z" fill="#F9B100"/>
<path d="M91.578 0H103.965L104 0.057846L87.0421 16L87 15.9766L91.578 0Z" fill="#F9B100"/>
</g>
<defs>
<clipPath id="clip0_508_2808">
<rect width="133" height="48" fill="white"/>
</clipPath>
</defs>
</svg>
