<svg width="42" height="42" viewBox="0 0 42 42" fill="none" xmlns="http://www.w3.org/2000/svg">
<path fill-rule="evenodd" clip-rule="evenodd" d="M21.1971 28.4336C19.6864 28.4336 18.2063 28.0274 16.91 27.2656L16.6038 27.0828L13.4191 27.9156L14.2663 24.8281L14.0622 24.5133C13.2229 23.1798 12.7772 21.6383 12.7761 20.0649C12.7761 15.454 16.5528 11.6961 21.1869 11.6961C23.4325 11.6961 25.5454 12.5696 27.1275 14.154C27.9109 14.9299 28.5317 15.8527 28.954 16.8691C29.3763 17.8855 29.5916 18.9752 29.5875 20.075C29.6079 24.686 25.8312 28.4336 21.1971 28.4336ZM24.0857 21.3547C24.3103 21.4461 25.5556 22.0555 25.8108 22.1774C26.066 22.2992 26.2191 22.35 26.2905 22.4617C26.362 22.5735 26.362 23.0711 26.1476 23.6602C25.9435 24.2492 24.9329 24.7875 24.443 24.8586C24.0041 24.9195 23.4529 24.95 22.8507 24.757C22.4832 24.6453 22.0137 24.493 21.4114 24.2289C18.88 23.1422 17.2162 20.6032 17.0938 20.4305L17.0918 20.4279C16.9618 20.2555 16.0628 19.0631 16.0628 17.8305C16.0628 16.5914 16.7161 15.9821 16.9406 15.7282C17.1754 15.4743 17.4408 15.4133 17.6143 15.4133H18.1043C18.2574 15.4235 18.4717 15.3625 18.6759 15.85C18.88 16.3579 19.3904 17.5969 19.4516 17.7188C19.5129 17.8407 19.5537 17.9828 19.472 18.1555C19.3904 18.318 19.3394 18.4297 19.2169 18.5719C19.0944 18.7141 18.9515 18.8969 18.8392 19.0086C18.7065 19.1407 18.584 19.2727 18.7269 19.5266C18.88 19.7805 19.3802 20.6032 20.1355 21.2735C21.095 22.1266 21.9116 22.4008 22.1668 22.5227C22.422 22.6547 22.5751 22.6344 22.718 22.4617C22.8609 22.2992 23.3406 21.7305 23.5141 21.4766C23.6877 21.2328 23.851 21.2735 24.0857 21.3547Z" fill="#070707"/>
<path fill-rule="evenodd" clip-rule="evenodd" d="M25.0734 10.7618C26.3019 11.2693 27.4166 12.015 28.3524 12.9555C30.2611 14.8547 31.3125 17.3836 31.3125 20.075C31.3125 25.6203 26.7703 30.1398 21.1971 30.1398C19.5027 30.1398 17.8389 29.7133 16.3588 28.9109L11 30.3125L12.429 25.0922C11.5512 23.5688 11.0817 21.8422 11.0817 20.0649C11.0817 14.5196 15.6239 10.0001 21.1971 10.0001C22.5272 9.99545 23.8449 10.2544 25.0734 10.7618ZM16.91 27.2656C18.2063 28.0274 19.6864 28.4336 21.1971 28.4336C25.8312 28.4336 29.6079 24.686 29.5875 20.075C29.5916 18.9752 29.3763 17.8855 28.954 16.8691C28.5317 15.8527 27.9109 14.9299 27.1275 14.154C25.5454 12.5696 23.4325 11.6961 21.1869 11.6961C16.5528 11.6961 12.7761 15.454 12.7761 20.0649C12.7772 21.6383 13.2229 23.1798 14.0622 24.5133L14.2663 24.8281L13.4191 27.9156L16.6038 27.0828L16.91 27.2656Z" fill="#070707"/>
<rect opacity="0.5" x="1" y="1" width="40" height="40" rx="5" stroke="#C7C7C7"/>
</svg>
