<svg width="50" height="50" viewBox="0 0 50 50" fill="none" xmlns="http://www.w3.org/2000/svg">
<path fill-rule="evenodd" clip-rule="evenodd" d="M43.75 25C43.75 17.1881 43.75 13.2821 41.7606 10.5439C41.1181 9.65958 40.3404 8.8819 39.4561 8.23941C36.7179 6.25 32.8119 6.25 25 6.25C23.2522 6.25 21.6999 6.25 20.3125 6.27228L20.3125 6.41838C20.3127 8.19341 20.3127 9.27463 20.165 10.2073C19.3532 15.3331 15.3331 19.3532 10.2073 20.165C9.27463 20.3127 8.19341 20.3126 6.41838 20.3125L6.27228 20.3125C6.25 21.6999 6.25 23.2522 6.25 25C6.25 32.8119 6.25 36.7179 8.23941 39.4561C8.8819 40.3404 9.65958 41.1181 10.5439 41.7606C13.2821 43.75 17.1881 43.75 25 43.75C32.8119 43.75 36.7179 43.75 39.4561 41.7606C40.3404 41.1181 41.1181 40.3404 41.7606 39.4561C43.75 36.7179 43.75 32.8119 43.75 25ZM25.5208 20.8333C25.5208 19.9704 26.2204 19.2708 27.0833 19.2708C27.9463 19.2708 28.6458 19.9704 28.6458 20.8333L28.6458 25.5208H33.3333C34.1963 25.5208 34.8958 26.2204 34.8958 27.0833C34.8958 27.9463 34.1963 28.6458 33.3333 28.6458H28.6458V33.3333C28.6458 34.1963 27.9463 34.8958 27.0833 34.8958C26.2204 34.8958 25.5208 34.1963 25.5208 33.3333V28.6458H20.8333C19.9704 28.6458 19.2708 27.9463 19.2708 27.0833C19.2708 26.2204 19.9704 25.5208 20.8333 25.5208H25.5208V20.8333Z" fill="#527BEF"/>
<path d="M17.0785 9.71843C17.1802 9.07595 17.1872 8.28266 17.1875 6.38612C14.1883 6.5828 12.1622 7.06368 10.5439 8.23941C9.65958 8.8819 8.8819 9.65958 8.23941 10.5439C7.06368 12.1622 6.5828 14.1883 6.38612 17.1875C8.28266 17.1872 9.07595 17.1802 9.71843 17.0785C13.5071 16.4784 16.4784 13.5071 17.0785 9.71843Z" fill="#527BEF"/>
</svg>
