<svg width="50" height="50" viewBox="0 0 50 50" fill="none" xmlns="http://www.w3.org/2000/svg">
<path fill-rule="evenodd" clip-rule="evenodd" d="M14.1072 8.42013C14.1072 5.20805 16.7111 2.60416 19.9231 2.60416H30.6857C33.5621 2.60416 35.894 4.93601 35.894 7.81249C35.894 8.96308 36.8267 9.89582 37.9773 9.89582H39.2051C42.5069 9.89582 45.4109 12.4583 45.2763 15.97C45.1039 20.4722 44.2294 27.6939 40.7225 34.085C39.7719 35.8174 38.5023 37.5191 37.1299 39.1048L37.0265 39.2242C35.0522 41.5054 33.4061 43.4075 31.6363 44.704C29.7328 46.0985 27.7012 46.7932 25.0006 46.7932C22.3 46.7932 20.2683 46.0985 18.3648 44.704C16.5951 43.4075 14.9489 41.5054 12.9746 39.2242L12.8713 39.1048C11.4989 37.5191 10.2293 35.8174 9.2787 34.085C5.88463 27.8996 4.95411 21.3698 4.7426 17.1802C4.56446 13.6515 7.48928 11.1111 10.7727 11.1111H11.4162C12.9024 11.1111 14.1072 9.90631 14.1072 8.42013ZM26.5629 18.75C26.5629 17.887 25.8634 17.1875 25.0004 17.1875C24.1375 17.1875 23.4379 17.887 23.4379 18.75V23.4375H18.7504C17.8875 23.4375 17.1879 24.137 17.1879 25C17.1879 25.8629 17.8875 26.5625 18.7504 26.5625H23.4379V31.25C23.4379 32.1129 24.1375 32.8125 25.0004 32.8125C25.8634 32.8125 26.5629 32.1129 26.5629 31.25V26.5625H31.2504C32.1134 26.5625 32.8129 25.8629 32.8129 25C32.8129 24.137 32.1134 23.4375 31.2504 23.4375H26.5629V18.75Z" fill="white"/>
</svg>
