<svg width="40" height="40" viewBox="0 0 40 40" fill="none" xmlns="http://www.w3.org/2000/svg">
<path d="M19.1264 13.2812C19.2224 13.2258 19.3199 13.176 19.4186 13.1317V18.9427C17.0727 17.9067 16.853 14.5938 19.1264 13.2812Z" fill="#527BEF"/>
<path d="M21.5814 27.8685V22.0572C23.9276 23.093 24.1474 26.4062 21.8739 27.7188C21.7778 27.7742 21.6802 27.8241 21.5814 27.8685Z" fill="#527BEF"/>
<path fill-rule="evenodd" clip-rule="evenodd" d="M5 20.5C5 11.9396 11.9396 5 20.5 5C29.0604 5 36 11.9396 36 20.5C36 29.0604 29.0604 36 20.5 36C11.9396 36 5 29.0604 5 20.5ZM21.5814 10.407C21.5814 9.80974 21.0972 9.32558 20.5 9.32558C19.9028 9.32558 19.4186 9.80974 19.4186 10.407V10.8512C18.9475 10.9694 18.4852 11.1541 18.045 11.4082C14.1204 13.674 14.6193 19.4891 18.8724 21.0535L19.4186 21.2544V28.0257C18.6474 27.8082 17.9584 27.3012 17.527 26.554L16.9854 25.6161C16.6868 25.0989 16.0255 24.9217 15.5082 25.2203C14.991 25.5189 14.8138 26.1803 15.1124 26.6975L15.6539 27.6354C16.488 29.08 17.8941 29.9869 19.4186 30.2376V30.593C19.4186 31.1903 19.9028 31.6744 20.5 31.6744C21.0972 31.6744 21.5814 31.1903 21.5814 30.593V30.1489C22.0526 30.0307 22.515 29.846 22.9553 29.5918C26.8799 27.326 26.3811 21.5109 22.1279 19.9465L21.5814 19.7455V12.9742C22.3527 13.1917 23.0419 13.6987 23.4733 14.446L24.0149 15.3839C24.3135 15.9011 24.9748 16.0784 25.4921 15.7797C26.0093 15.4811 26.1865 14.8197 25.8879 14.3025L25.3464 13.3646C24.5123 11.9199 23.106 11.013 21.5814 10.7624V10.407Z" fill="#527BEF"/>
</svg>
