<svg width="36" height="36" viewBox="0 0 36 36" fill="none" xmlns="http://www.w3.org/2000/svg">
<path d="M13.5 3C9.56497 3 6.375 6.18997 6.375 10.125C6.375 14.06 9.56497 17.25 13.5 17.25C17.435 17.25 20.625 14.06 20.625 10.125C20.625 6.18997 17.435 3 13.5 3Z" fill="#527BEF"/>
<path d="M29.625 13.125C29.625 12.5037 29.1213 12 28.5 12C27.8787 12 27.375 12.5037 27.375 13.125V16.5H24C23.3787 16.5 22.875 17.0037 22.875 17.625C22.875 18.2463 23.3787 18.75 24 18.75H27.375V22.125C27.375 22.7463 27.8787 23.25 28.5 23.25C29.1213 23.25 29.625 22.7463 29.625 22.125V18.75H33C33.6213 18.75 34.125 18.2463 34.125 17.625C34.125 17.0037 33.6213 16.5 33 16.5H29.625V13.125Z" fill="#527BEF"/>
<path d="M9 19.5C5.06497 19.5 1.875 22.69 1.875 26.625C1.875 30.56 5.06497 33.75 9 33.75H18C21.935 33.75 25.125 30.56 25.125 26.625C25.125 22.69 21.935 19.5 18 19.5H9Z" fill="#527BEF"/>
</svg>
