<svg width="50" height="50" viewBox="0 0 50 50" fill="none" xmlns="http://www.w3.org/2000/svg">
<path d="M11.2956 16.3531C17.5347 13.2137 25.3342 14.2511 30.5419 19.4654C35.6208 24.5506 36.7319 32.1042 33.8753 38.2695C34.2719 38.0771 34.6646 37.8616 35.0522 37.6218C35.4371 37.3837 35.6295 37.2646 35.775 37.2069C36.0532 37.0966 36.2642 37.0647 36.5625 37.0878C36.7185 37.0998 36.8953 37.1457 37.2488 37.2375C39.4735 37.8148 40.586 38.1035 41.3874 37.9402C42.7783 37.6568 43.8653 36.5684 44.1484 35.1757C44.3115 34.3733 44.0232 33.2596 43.4465 31.032C43.3549 30.6779 43.309 30.5009 43.297 30.3442C43.2741 30.0455 43.3067 29.8318 43.4174 29.5534C43.4755 29.4074 43.5942 29.2161 43.8317 28.8335C48.12 21.9243 44.8012 13.5482 40.6121 9.35381C33.7046 2.43764 22.5054 2.43764 15.5979 9.35381C13.5663 11.3881 12.1321 13.794 11.2956 16.3531Z" fill="white"/>
<path fill-rule="evenodd" clip-rule="evenodd" d="M13.0469 44.218C18.742 47.7419 25.7591 44.8774 29.0681 41.5643C34.7566 35.8686 34.7566 26.6341 29.0681 20.9384C23.3796 15.2428 14.1567 15.2428 8.46818 20.9384C5.0183 24.3927 2.28518 31.2906 5.81675 36.9805C6.01233 37.2956 6.11012 37.4532 6.15795 37.5734C6.24912 37.8026 6.27591 37.9786 6.25706 38.2246C6.24717 38.3537 6.20943 38.4995 6.13395 38.791C5.65908 40.6255 5.42163 41.5428 5.55594 42.2036C5.78905 43.3505 6.68426 44.2468 7.82971 44.4802C8.48968 44.6147 9.40575 44.3769 11.2379 43.9015C11.529 43.8259 11.6747 43.7881 11.8031 43.7782C12.0488 43.7592 12.2226 43.7855 12.4516 43.8763C12.5715 43.9238 12.7299 44.0218 13.0469 44.218ZM22.9178 31.25C22.9178 32.4006 23.8505 33.3334 25.0011 33.3334C26.1517 33.3334 27.0845 32.4006 27.0845 31.25C27.0845 30.0994 26.1517 29.1667 25.0011 29.1667C23.8505 29.1667 22.9178 30.0994 22.9178 31.25ZM16.6678 31.25C16.6678 32.4006 17.6005 33.3334 18.7511 33.3334C19.9017 33.3334 20.8345 32.4006 20.8345 31.25C20.8345 30.0994 19.9017 29.1667 18.7511 29.1667C17.6005 29.1667 16.6678 30.0994 16.6678 31.25ZM12.5011 33.3334C11.3505 33.3334 10.4178 32.4006 10.4178 31.25C10.4178 30.0994 11.3505 29.1667 12.5011 29.1667C13.6517 29.1667 14.5845 30.0994 14.5845 31.25C14.5845 32.4006 13.6517 33.3334 12.5011 33.3334Z" fill="white"/>
</svg>
