<svg width="42" height="42" viewBox="0 0 42 42" fill="none" xmlns="http://www.w3.org/2000/svg">
<g clip-path="url(#clip0_348_3220)">
<path fill-rule="evenodd" clip-rule="evenodd" d="M29.3419 12.2865C29.598 12.1805 29.8784 12.1439 30.1538 12.1806C30.4292 12.2173 30.6895 12.3259 30.9078 12.4951C31.126 12.6643 31.2941 12.8879 31.3946 13.1427C31.4951 13.3975 31.5243 13.6741 31.4792 13.9437L29.1283 27.9651C28.9003 29.3177 27.3911 30.0933 26.1296 29.4196C25.0744 28.8559 23.5071 27.9876 22.0974 27.0815C21.3926 26.6279 19.2334 25.1755 19.4988 24.142C19.7268 23.2584 23.3548 19.9378 25.4279 17.9635C26.2415 17.1879 25.8705 16.7405 24.9096 17.4539C22.5224 19.2253 18.6924 21.9191 17.4257 22.6774C16.3083 23.346 15.7258 23.4602 15.0292 23.346C13.7584 23.1381 12.5799 22.816 11.6179 22.4236C10.3181 21.8936 10.3813 20.1365 11.6169 19.6249L29.3419 12.2865Z" fill="#070707"/>
</g>
<rect opacity="0.5" x="1" y="1" width="40" height="40" rx="5" stroke="#C7C7C7"/>
<defs>
<clipPath id="clip0_348_3220">
<rect width="25" height="25" fill="white" transform="translate(9 8)"/>
</clipPath>
</defs>
</svg>
